<svg width="240" height="240" viewBox="0 0 240 240" fill="none" xmlns="http://www.w3.org/2000/svg">
<path fill-rule="evenodd" clip-rule="evenodd" d="M131.006 1.74845L3.20047 97.6028C-0.334152 100.254 -1.0505 105.268 1.60047 108.803C4.25144 112.337 9.26585 113.054 12.8005 110.403L135.904 18.0748C136.233 17.8286 136.678 17.808 137.028 18.0229L227.813 73.8175C231.577 76.1309 236.504 74.9548 238.818 71.1906C241.131 67.4263 239.955 62.4995 236.191 60.186L140.393 1.3106C139.845 0.950962 139.259 0.663663 138.65 0.450835C137.64 0.0952424 136.587 -0.0459015 135.553 0.0129384C134.604 0.065522 133.657 0.287331 132.762 0.685141C132.139 0.960317 131.548 1.31612 131.006 1.74845ZM185.004 203.574C182.243 203.574 180.004 205.812 180.004 208.574V210.574C180.004 211.126 179.557 211.574 179.004 211.574H125.004C122.243 211.574 120.004 213.812 120.004 216.574V218.574C120.004 219.126 119.557 219.574 119.004 219.574H65.0044C62.243 219.574 60.0044 221.812 60.0044 224.574V226.574C60.0044 227.126 59.5567 227.574 59.0044 227.574H4.00438C1.79524 227.574 0.00437681 229.364 0.00437681 231.574C0.00437681 235.992 3.5861 239.574 8.00438 239.574H60.0044H120.004H180.004H230.004C235.527 239.574 240.004 235.096 240.004 229.574V208.574C240.004 205.812 237.766 203.574 235.004 203.574H185.004ZM18.7511 168.111C18.7511 161.518 24.096 156.173 30.6894 156.173C37.2827 156.173 42.6277 161.518 42.6277 168.111V199.774C42.6277 206.367 37.2827 211.712 30.6894 211.712C24.096 211.712 18.7511 206.367 18.7511 199.774V168.111ZM30.859 151.283C39.0629 151.283 45.7135 144.632 45.7135 136.428C45.7135 128.224 39.0629 121.573 30.859 121.573C22.655 121.573 16.0044 128.224 16.0044 136.428C16.0044 144.632 22.655 151.283 30.859 151.283ZM74.4004 150.031C74.4004 141.891 80.9992 135.292 89.1392 135.292C97.2792 135.292 103.878 141.891 103.878 150.031V189.121C103.878 197.261 97.2792 203.859 89.1392 203.859C80.9992 203.859 74.4004 197.261 74.4004 189.121V150.031ZM89.3435 129.252C99.4719 129.252 107.683 121.041 107.683 110.913C107.683 100.784 99.4719 92.5734 89.3435 92.5734C79.2151 92.5734 71.0044 100.784 71.0044 110.913C71.0044 121.041 79.2151 129.252 89.3435 129.252ZM132.864 134.832C132.864 125.587 140.359 118.092 149.605 118.092C158.851 118.092 166.346 125.587 166.346 134.832V179.232C166.346 188.477 158.851 195.972 149.605 195.972C140.359 195.972 132.864 188.477 132.864 179.232V134.832ZM149.834 111.233C161.339 111.233 170.664 101.908 170.664 90.4034C170.664 78.8993 161.339 69.5734 149.834 69.5734C138.33 69.5734 129.004 78.8993 129.004 90.4034C129.004 101.908 138.33 111.233 149.834 111.233ZM196.134 138.486C196.134 130.989 202.211 124.912 209.707 124.912C217.203 124.912 223.28 130.989 223.28 138.486V174.484C223.28 181.98 217.203 188.057 209.707 188.057C202.211 188.057 196.134 181.98 196.134 174.484V138.486ZM209.893 119.351C219.221 119.351 226.782 111.79 226.782 102.462C226.782 93.1348 219.221 85.5734 209.893 85.5734C200.566 85.5734 193.004 93.1348 193.004 102.462C193.004 111.79 200.566 119.351 209.893 119.351Z" fill="#5791BA"/>
</svg>
