<svg width="470" height="470" viewBox="0 0 470 470" fill="none" xmlns="http://www.w3.org/2000/svg">
<path fill-rule="evenodd" clip-rule="evenodd" d="M100.778 426.324C100.543 426.957 99.7717 427.219 99.2206 426.828C91.41 421.289 83.9524 415.286 76.8882 408.857C76.5351 408.536 76.46 408.009 76.7107 407.603C77.3905 406.501 78.0872 405.405 78.7865 404.304L78.7872 404.303L78.7902 404.299L78.7932 404.294L78.7946 404.292L78.7992 404.284C79.1569 403.722 79.5152 403.158 79.8723 402.592C81.359 400.234 82.8135 397.852 84.0132 395.452C88.662 386.155 94.8734 377.634 101.379 369.269C102.927 367.279 104.421 365.195 105.884 363.09C107.505 364.82 108.998 366.517 110.341 368.084C113.275 371.507 116.314 375.163 118.961 379.036C119.017 379.117 119.084 379.19 119.161 379.252C121.793 381.369 124.485 383.415 127.233 385.388C124.636 388.913 122.205 392.611 120.118 396.636C118.065 400.595 115.012 404.59 111.805 408.784L111.804 408.786C110.807 410.091 109.795 411.414 108.794 412.762C105.6 417.063 102.529 421.6 100.778 426.324ZM108.451 369.704C108.787 370.096 109.124 370.49 109.46 370.886C107.882 369.428 106.33 367.942 104.803 366.43C103.929 365.564 104.376 365.113 105.205 366.022C106.358 367.288 107.444 368.528 108.451 369.704Z" fill="url(#paint0_linear_13_77)"/>
<path d="M188.196 335.156C188.656 335.574 189.136 335.945 189.632 336.273C189.987 335.866 190.332 335.483 190.662 335.125C190.944 334.82 190.976 334.374 190.77 334.036C190.591 333.909 190.415 333.776 190.243 333.636C189.925 333.545 189.568 333.633 189.327 333.894C188.967 334.284 188.587 334.707 188.196 335.156Z" fill="url(#paint1_linear_13_77)"/>
<path d="M129.817 387.21C127.274 390.659 124.927 394.229 122.925 398.091C120.732 402.32 117.438 406.627 114.194 410.869L114.192 410.872L114.191 410.873C113.223 412.138 112.26 413.397 111.332 414.647C107.768 419.446 104.687 424.136 103.27 428.821C103.147 429.228 103.311 429.664 103.663 429.902C130.796 448.222 161.96 461.025 195.546 466.702C196.026 466.784 196.494 466.505 196.657 466.046C198.09 461.995 199.749 457.947 202.023 453.984C208.945 441.928 216.867 430.746 224.934 419.731C189.708 417.842 157.1 406.099 129.817 387.21Z" fill="url(#paint2_linear_13_77)"/>
<path fill-rule="evenodd" clip-rule="evenodd" d="M228.736 419.896C220.283 431.396 212.013 442.934 204.765 455.558C202.781 459.014 201.279 462.565 199.958 466.206C199.744 466.796 200.126 467.431 200.746 467.522C211.928 469.154 223.365 470 235 470C297.661 470 354.595 445.475 396.725 405.5C396.91 405.325 397.02 405.086 397.034 404.831C397.213 401.52 397.343 398.216 397.343 394.894C397.343 391.528 397.737 388.174 398.119 384.917L398.121 384.903L398.121 384.895C398.207 384.168 398.291 383.446 398.371 382.73C398.813 378.747 399.109 374.871 398.619 370.946C398.325 368.601 397.7 367.804 397.35 367.568C397.092 367.393 396.6 367.285 395.604 367.748C394.631 368.2 393.525 369.056 392.456 370.106C391.401 371.141 390.465 372.283 389.823 373.21C389.304 373.96 388.845 375.274 388.485 377.099C388.134 378.88 387.91 380.971 387.756 383.138C387.603 385.301 387.523 387.498 387.452 389.492L387.445 389.681C387.378 391.578 387.316 393.316 387.201 394.591C387.043 396.328 386.86 398.021 386.68 399.692L386.68 399.695C386.23 403.868 385.796 407.904 385.796 412.129C385.796 413.002 385.088 413.71 384.215 413.71C383.342 413.71 382.634 413.002 382.634 412.129C382.634 407.722 383.096 403.43 383.553 399.192C383.729 397.556 383.905 395.928 384.052 394.305C384.16 393.124 384.219 391.469 384.289 389.517V389.495L384.289 389.492L384.293 389.38C384.363 387.391 384.445 385.141 384.603 382.915C384.76 380.693 384.996 378.454 385.383 376.488C385.762 374.566 386.319 372.717 387.224 371.41C387.976 370.323 389.041 369.028 390.241 367.85C391.427 366.686 392.831 365.551 394.271 364.881C395.688 364.222 397.512 363.861 399.121 364.949C400.639 365.976 401.431 367.958 401.756 370.554C402.295 374.869 401.96 379.055 401.513 383.079C401.428 383.846 401.339 384.604 401.251 385.357V385.358C400.871 388.603 400.505 391.731 400.505 394.894C400.505 396.417 400.478 397.936 400.432 399.449C400.405 400.358 401.502 400.84 402.141 400.194C411.585 390.639 420.215 380.279 427.92 369.225C428.037 369.058 428.099 368.859 428.099 368.655V345.269C428.099 344.396 428.807 343.688 429.68 343.688C430.553 343.688 431.261 344.396 431.261 345.269V360.972C431.261 361.964 432.541 362.345 433.076 361.51C440.221 350.346 446.448 338.538 451.651 326.192C451.777 325.894 451.748 325.553 451.581 325.276C451.275 324.766 450.983 324.249 450.705 323.725C448.256 319.105 446.82 313.831 446.82 309.164C446.82 308.291 447.528 307.583 448.401 307.583C449.274 307.583 449.982 308.291 449.982 309.164C449.982 312.54 450.854 316.394 452.431 320.026C452.772 320.811 453.861 320.764 454.17 319.965C464.393 293.615 470 264.962 470 235C470 170.624 444.114 112.293 402.184 69.8498C401.752 69.4122 401.03 69.4688 400.671 69.9683C391.275 83.0492 383.801 96.6782 379.042 112.384C378.485 114.22 378.025 115.808 377.646 117.191C404.103 149.189 420 190.238 420 235C420 244.071 419.347 252.99 418.086 261.711C417.996 262.332 417.361 262.714 416.772 262.498C413.99 261.48 411.275 260.32 408.631 258.802C397.401 252.355 387.264 244.88 377.029 237.333L377.028 237.332L377.024 237.33C374.683 235.603 372.336 233.873 369.971 232.151C369.99 233.098 370 234.048 370 235L370 235.257C371.793 236.569 373.582 237.888 375.373 239.207L375.375 239.209L375.377 239.21C385.698 246.818 396.054 254.452 407.392 260.96C410.456 262.719 413.586 264.011 416.718 265.125C417.177 265.288 417.456 265.756 417.374 266.236C415.186 279.103 411.67 291.517 406.971 303.332C407.837 304.336 408.644 305.606 409.401 307.12C410.596 309.509 411.556 312.077 412.475 314.538L412.475 314.539L412.476 314.541L412.478 314.546C412.926 315.744 413.364 316.917 413.815 318.031C415.234 321.535 416.865 324.721 419.506 327.361C419.522 327.377 419.536 327.391 419.549 327.403C419.556 327.409 419.563 327.414 419.569 327.42C419.587 327.435 419.603 327.446 419.615 327.454L419.625 327.461L419.632 327.465C419.633 327.466 419.635 327.467 419.636 327.467C419.637 327.467 419.639 327.467 419.641 327.467L419.642 327.467C419.752 327.443 420.04 327.312 420.489 326.862C421.371 325.981 422.274 324.493 423.006 323.087C423.361 322.406 423.656 321.783 423.871 321.317C423.943 321.162 424.002 321.031 424.054 320.917L424.132 320.747L424.161 320.683L424.187 320.628L424.209 320.582L424.224 320.551C424.232 320.533 424.244 320.51 424.257 320.484C424.263 320.471 424.27 320.458 424.278 320.444C424.282 320.436 424.288 320.425 424.296 320.412L424.301 320.403C424.309 320.388 424.319 320.371 424.33 320.353L424.331 320.352C424.345 320.328 424.404 320.232 424.497 320.126C424.532 320.085 424.667 319.932 424.889 319.802C425.084 319.688 425.84 319.334 426.605 319.879C427.163 320.276 427.242 320.856 427.253 320.942L427.254 320.947C427.277 321.114 427.268 321.246 427.265 321.295C427.256 321.406 427.237 321.494 427.231 321.52C427.223 321.559 427.214 321.591 427.208 321.613C427.199 321.646 427.189 321.681 427.178 321.716C427.165 321.76 427.151 321.803 427.138 321.841C427.122 321.891 427.102 321.951 427.079 322.019C427.05 322.107 427.015 322.209 426.975 322.325L426.877 322.613L426.876 322.615L426.875 322.618C426.656 323.259 426.315 324.257 425.831 325.71C425.685 326.147 425.367 326.478 424.977 326.653C424.707 326.774 424.438 326.924 424.272 327.17C423.798 327.873 423.277 328.546 422.724 329.098C422.109 329.713 421.298 330.341 420.318 330.555C419.199 330.8 418.124 330.451 417.27 329.597C414.184 326.511 412.361 322.862 410.885 319.218C410.362 317.928 409.892 316.666 409.429 315.425L409.428 315.424C408.548 313.063 407.697 310.781 406.574 308.534C406.231 307.848 405.896 307.257 405.572 306.748C400.898 317.848 395.171 328.396 388.518 338.268C388.28 338.62 387.844 338.785 387.438 338.658C387.41 338.649 387.381 338.64 387.353 338.631L387.299 338.614C387.503 343.063 387.539 347.744 386.006 352.174C385.625 353.275 385.075 354.188 384.312 354.853C383.532 355.532 382.627 355.866 381.696 355.954C379.947 356.118 378.08 355.41 376.472 354.647C376.387 354.606 376.3 354.564 376.213 354.522C374.831 356.153 373.421 357.76 371.984 359.342C371.663 359.695 371.136 359.77 370.73 359.519C369.91 359.011 369.093 358.492 368.274 357.971L368.272 357.97L368.257 357.96L368.253 357.958C367.814 357.679 367.375 357.4 366.934 357.122C365.078 355.951 363.202 354.806 361.313 353.862C360.492 353.451 359.679 353.026 358.873 352.586C357.889 352.944 356.919 353.354 355.976 353.814C357.361 354.612 358.769 355.372 360.2 356.088C361.972 356.974 363.76 358.062 365.606 359.227C366.015 359.485 366.427 359.747 366.843 360.011L366.862 360.023L366.876 360.032L366.911 360.054L366.914 360.056L366.918 360.058L366.941 360.073C367.509 360.434 368.082 360.798 368.659 361.16C369.196 361.497 369.295 362.242 368.857 362.7C359.471 372.536 349.011 381.339 337.667 388.921C337.659 389.325 337.656 389.731 337.656 390.139V442.885C337.656 443.758 336.948 444.466 336.075 444.466C335.202 444.466 334.495 443.758 334.495 442.885V390.995C323.555 397.986 311.832 403.859 299.486 408.451L299.441 408.595C299.365 408.834 299.291 409.072 299.216 409.31C297.63 414.367 296.202 419.18 296.202 424.164C296.202 425.037 295.495 425.745 294.622 425.745C293.749 425.745 293.041 425.037 293.041 424.164C293.041 419.152 294.341 414.374 295.754 409.793C276.725 416.406 256.282 420 235 420C232.904 420 230.815 419.965 228.736 419.896ZM452.231 288.889C453.277 288.314 453.917 288.205 454.313 288.219C454.692 288.232 455.033 288.362 455.506 288.656C455.649 288.745 455.813 288.86 455.998 288.991C456.929 289.647 458.407 290.688 460.516 290.688C461.389 290.688 462.096 289.98 462.096 289.107C462.096 288.234 461.389 287.527 460.516 287.527C459.486 287.527 458.953 287.162 458.097 286.578C457.83 286.396 457.531 286.193 457.177 285.972C456.475 285.535 455.582 285.099 454.421 285.059C453.276 285.02 452.067 285.371 450.708 286.118C447.642 287.803 445.487 290.027 443.879 292.943C443.839 293.014 443.73 292.997 443.715 292.917C443.702 292.845 443.689 292.774 443.675 292.705C443.502 291.803 443.29 290.831 443.014 290.13C442.797 289.58 442.428 289.064 441.852 288.73C441.284 288.402 440.687 288.352 440.193 288.405C439.286 288.502 438.396 288.982 437.731 289.395C437.112 289.778 436.482 290.238 435.951 290.625L435.949 290.627L435.724 290.791C435.072 291.265 434.701 291.511 434.521 291.587C432.565 292.412 431.272 294.046 430.415 295.889C429.56 297.728 429.072 299.91 428.786 302.092C428.319 305.652 428.361 309.508 428.391 312.329V312.33L428.391 312.34V312.342C428.395 312.674 428.398 312.991 428.4 313.291C428.402 313.448 428.403 313.6 428.403 313.748L428.403 313.81C428.404 313.886 428.404 313.962 428.404 314.036C428.404 314.909 429.111 315.617 429.984 315.617C430.857 315.617 431.565 314.909 431.565 314.036C431.565 313.477 431.559 312.867 431.552 312.217V312.215L431.552 312.207C431.523 309.382 431.486 305.815 431.92 302.503C432.186 300.472 432.618 298.647 433.281 297.223C433.941 295.803 434.764 294.916 435.75 294.5C436.34 294.251 437.038 293.744 437.583 293.348L437.821 293.175L437.822 293.174L437.823 293.173C438.364 292.779 438.888 292.397 439.396 292.082C439.807 291.827 440.311 292.061 440.414 292.534C440.465 292.768 440.517 293.024 440.57 293.3C440.599 293.448 440.626 293.594 440.652 293.738L440.668 293.822C440.683 293.908 440.699 293.994 440.714 294.08C440.734 294.193 440.754 294.305 440.774 294.418C440.798 294.556 440.822 294.694 440.846 294.832C440.915 295.23 440.985 295.629 441.061 296.04C441.207 296.829 441.391 297.754 441.65 298.327C441.717 298.476 441.85 298.743 442.085 298.983C442.337 299.241 442.928 299.663 443.732 299.459C444.377 299.295 444.703 298.821 444.81 298.652C444.951 298.431 445.045 298.196 445.111 298.005C446.64 293.57 448.724 290.816 452.231 288.889Z" fill="url(#paint3_linear_13_77)"/>
<path d="M370.957 186.658C367.272 185.5 363.742 184.391 360.086 184.126C360.046 184.027 360.005 183.928 359.964 183.829L359.912 183.7C360.427 183.064 360.924 182.414 361.402 181.751C364.95 182.16 368.352 183.23 371.614 184.256L372.223 184.447C376.204 185.696 379.993 186.819 383.916 186.819C384.604 186.819 385.161 187.377 385.161 188.064C385.161 188.751 384.604 189.308 383.916 189.308C379.559 189.308 375.426 188.06 371.478 186.822L370.957 186.658Z" fill="url(#paint4_linear_13_77)"/>
<path d="M357.131 156.675C352.195 156.675 347.708 156.047 343.464 154.609C342.478 153.28 341.468 151.971 340.435 150.681C345.526 153.15 350.916 154.186 357.131 154.186H369.289C369.099 155.017 368.902 155.847 368.697 156.675H357.131Z" fill="url(#paint5_linear_13_77)"/>
<path d="M326.21 130.165C326.21 132.472 326.663 134.937 327.502 137.303C327.258 137.362 327.034 137.512 326.886 137.746L326.762 137.943L326.56 138.262L326.263 138.729L326.256 138.741L326.24 138.766L326.233 138.776L326.031 139.095C325.927 139.259 325.823 139.422 325.72 139.585C325.423 138.882 325.158 138.168 324.925 137.448C325.202 137.013 325.477 136.578 325.748 136.142C326 135.737 325.925 135.21 325.571 134.89C325.044 134.412 324.514 133.939 323.979 133.471C323.808 132.351 323.721 131.243 323.721 130.165C323.721 128.902 324.346 127.51 324.962 126.308C325.252 125.742 325.54 125.215 325.822 124.701L325.823 124.698L325.825 124.696L325.827 124.693L325.828 124.69L325.829 124.689L325.83 124.686L325.831 124.685L325.833 124.682L325.834 124.68C326.222 123.972 326.596 123.288 326.942 122.56C327.53 121.321 327.802 120.394 327.741 119.749C327.715 119.471 327.628 119.266 327.475 119.091C327.312 118.903 327.007 118.675 326.43 118.475C325.557 118.173 324.669 117.959 323.766 117.811C324.272 117.071 324.765 116.322 325.243 115.563C325.915 115.71 326.583 115.894 327.244 116.123C328.11 116.423 328.829 116.856 329.352 117.457C329.887 118.07 330.15 118.783 330.219 119.516C330.348 120.893 329.791 122.363 329.19 123.628C328.832 124.382 328.373 125.223 327.943 126.013L327.941 126.015L327.941 126.017C327.663 126.526 327.396 127.014 327.177 127.442C326.54 128.687 326.21 129.579 326.21 130.165Z" fill="url(#paint6_linear_13_77)"/>
<path d="M122.741 200.021C122.706 200.096 122.67 200.17 122.633 200.243L122.303 199.783C121.998 199.357 121.71 198.865 121.436 198.349C121.632 197.713 121.774 196.993 121.876 196.222C121.973 195.478 122.029 194.711 122.06 193.957C122.287 194.414 122.513 194.888 122.729 195.342L122.729 195.343L122.73 195.344C122.891 195.684 123.048 196.013 123.195 196.314C123.329 196.587 123.458 196.845 123.584 197.085C123.412 198.125 123.15 199.141 122.741 200.021Z" fill="url(#paint7_linear_13_77)"/>
<path d="M149.459 170.377C149.303 171.406 149.26 172.462 149.269 173.549C148.679 173.009 148.084 172.478 147.483 171.956C147.534 170.973 147.649 169.989 147.872 169.019C148.406 169.465 148.935 169.918 149.459 170.377Z" fill="url(#paint8_linear_13_77)"/>
<path d="M102.545 265.785L103.525 265.781C103.719 266.613 103.921 267.441 104.13 268.267L103.661 268.269C103.306 268.271 102.95 268.273 102.593 268.274H102.58C94.706 268.313 86.4955 268.353 78.6059 267.238C69.2549 265.916 60.2331 262.959 52.5592 256.381C52.0374 255.934 51.9769 255.148 52.4242 254.627C52.8715 254.105 53.6571 254.044 54.1789 254.492C61.3741 260.659 69.8903 263.492 78.9544 264.774C86.6482 265.861 94.6491 265.823 102.529 265.785L102.533 265.785L102.545 265.785Z" fill="url(#paint9_linear_13_77)"/>
<path fill-rule="evenodd" clip-rule="evenodd" d="M123.031 154.353C123.801 154.98 124.575 155.605 125.354 156.225C125.839 155.551 126.331 154.881 126.828 154.216C126.084 153.624 125.342 153.026 124.602 152.423C123.384 151.432 122.167 150.427 120.948 149.42C117.451 146.533 113.932 143.628 110.322 140.98C105.796 137.662 100.737 135.731 95.7441 134.063C94.7601 133.734 93.7812 133.416 92.8091 133.1L92.8022 133.098C89.8191 132.129 86.9009 131.18 84.0992 130.007C83.5209 129.765 83.3222 129.051 83.6834 128.539C89.2044 120.706 95.3183 113.321 101.96 106.449C102.305 106.091 102.862 106.045 103.265 106.337C113.832 113.97 124.913 120.097 137.75 123.987C145.573 126.358 147.998 126.61 150.381 126.538C150.684 126.529 150.974 126.516 151.267 126.503L151.269 126.503C152.093 126.465 152.941 126.426 154.168 126.476C154.325 126.482 154.487 126.49 154.657 126.5C155.671 125.747 156.697 125.009 157.733 124.284C156.335 124.115 155.213 124.028 154.269 123.989C152.926 123.935 151.934 123.98 151.09 124.019H151.087C150.814 124.031 150.556 124.043 150.307 124.051C148.34 124.109 146.231 123.957 138.472 121.606C126.189 117.883 115.52 112.052 105.284 104.723C104.784 104.365 104.727 103.644 105.166 103.212C128.971 79.7579 159.1 62.7048 192.763 54.8434C192.87 48.6489 193.19 42.4181 194.049 36.3373C195.729 24.4589 199.485 12.9988 207.84 3.25085C208.408 2.58801 209.406 2.51125 210.069 3.0794C210.732 3.64754 210.808 4.64545 210.24 5.30828C202.406 14.4482 198.807 25.2661 197.18 36.7799C196.375 42.4674 196.056 48.287 195.938 54.1315C208.531 51.4249 221.599 50 235 50C258.423 50 280.829 54.3529 301.454 62.294C302.253 62.6017 302.298 63.6854 301.507 64.0119C298.775 65.1389 295.91 65.7591 293.384 65.7591C292.697 65.7591 292.14 66.3162 292.14 67.0035C292.14 67.6907 292.697 68.2479 293.384 68.2479C297.058 68.2479 301.211 67.1178 304.847 65.1893C305.227 64.9877 305.603 64.7765 305.974 64.5561C306.252 64.3905 306.593 64.3618 306.891 64.4878C316.353 68.4822 325.414 73.2412 333.995 78.6874C334.833 79.2188 334.453 80.4968 333.461 80.4968H321.807C321.12 80.4968 320.563 81.054 320.563 81.7412C320.563 82.4285 321.12 82.9856 321.807 82.9856H340.151C340.355 82.9856 340.554 83.048 340.722 83.1647C341.7 83.8474 342.672 84.5393 343.637 85.2403C346.488 81.7689 349.278 78.3053 351.881 74.7553C355.79 69.4256 358.117 63.3957 360.219 57.1054C360.614 55.924 361.002 54.7301 361.391 53.5298L361.396 53.5151L361.398 53.5102L361.399 53.5066L361.402 53.4985L361.404 53.4917C362.773 49.2728 364.168 44.9757 365.982 40.866C366.18 40.4187 366.033 39.8924 365.627 39.6203C328.271 14.5956 283.34 0 235 0C179.714 0 128.888 19.0912 88.7529 51.0406C88.6488 51.1235 88.5626 51.2263 88.4984 51.3428C86.8699 54.2949 84.9049 57.1275 82.7742 59.8037C77.5369 66.3819 71.1712 72.1715 65.9472 76.6492C61.5895 80.3843 56.9342 84.2542 52.0021 87.6218C51.9207 87.6774 51.8478 87.7446 51.786 87.8214C19.3883 128.1 0 179.286 0 235C0 302.002 28.0404 362.455 73.0265 405.264C73.4856 405.701 74.2299 405.602 74.5659 405.065C75.0918 404.223 75.6219 403.389 76.1461 402.565L76.1477 402.562L76.1868 402.501L76.2025 402.476C76.538 401.948 76.8708 401.425 77.1983 400.905C78.6776 398.56 80.0604 396.289 81.1856 394.038C85.9812 384.447 92.355 375.722 98.884 367.328C100.534 365.206 102.101 363.006 103.646 360.77C101.608 358.721 99.4062 356.69 97.0795 354.837C94.9841 353.169 92.7668 351.63 90.4563 350.352C90.3399 350.287 90.237 350.201 90.1542 350.097C65.0186 318.507 50 278.507 50 235C50 197.01 61.4512 161.694 81.0902 132.316C81.3619 131.91 81.8882 131.763 82.3362 131.959C85.5213 133.352 88.8457 134.431 92.1105 135.491L92.1158 135.492L92.1321 135.498L92.138 135.5C93.0838 135.807 94.0245 136.112 94.9553 136.423C99.9073 138.078 104.654 139.91 108.85 142.987C112.398 145.589 115.836 148.427 119.316 151.301C120.547 152.317 121.783 153.337 123.031 154.353ZM329.389 30.7804C330.262 30.7804 330.97 31.4881 330.97 32.3611C330.97 37.8159 328.352 43.7631 325.09 49.0777C321.8 54.4378 317.717 59.3717 314.504 62.8519C313.912 63.4934 312.912 63.5334 312.27 62.9413C311.629 62.3491 311.589 61.3491 312.181 60.7076C315.307 57.3209 319.247 52.5527 322.396 47.4238C325.572 42.2493 327.808 36.9207 327.808 32.3611C327.808 31.4881 328.516 30.7804 329.389 30.7804Z" fill="url(#paint10_linear_13_77)"/>
<path d="M177.844 130.994C177.242 130.808 176.636 130.63 176.027 130.459V127.875C176.634 128.041 177.24 128.213 177.844 128.393V130.994Z" fill="url(#paint11_linear_13_77)"/>
<path d="M196.311 141.586C196.475 140.618 196.696 139.666 196.948 138.728C197.462 139.217 197.961 139.711 198.446 140.208C198.205 141.22 198.017 142.233 197.916 143.258C197.391 142.695 196.859 142.138 196.311 141.586Z" fill="url(#paint12_linear_13_77)"/>
<path d="M346.48 311.163C346.009 311.85 345.533 312.532 345.05 313.21L345.17 313.309C346.496 314.402 347.826 315.498 349.181 316.586C353.227 319.832 357.44 322.947 362.245 325.439C365.362 327.055 368.507 329.459 371.809 331.983L371.81 331.984L371.815 331.988L371.826 331.996C372.848 332.777 373.885 333.57 374.941 334.354C377.891 336.545 380.983 338.663 384.191 340.084C384.159 339.159 384.114 338.223 384.066 337.274C381.542 336.009 379.003 334.27 376.424 332.356C375.44 331.625 374.448 330.866 373.452 330.104L373.45 330.103L373.449 330.102C370.11 327.548 366.719 324.955 363.391 323.23C358.804 320.851 354.741 317.856 350.739 314.645C350.139 314.164 349.539 313.677 348.938 313.185C348.698 313.333 348.414 313.419 348.11 313.419C347.237 313.419 346.529 312.711 346.529 311.838C346.529 311.63 346.528 311.417 346.526 311.201L346.48 311.163Z" fill="url(#paint13_linear_13_77)"/>
<path d="M327.074 330.56C326.485 331.14 325.897 331.738 325.317 332.352C325.929 332.816 326.547 333.27 327.173 333.71C328.545 334.677 329.926 335.617 331.301 336.553L331.302 336.554C333.988 338.382 336.651 340.194 339.173 342.155C343.563 345.57 348.068 348.93 352.811 351.909C353.655 351.43 354.524 350.989 355.408 350.587C350.317 347.498 345.477 343.905 340.701 340.191C338.12 338.183 335.339 336.29 332.611 334.433L332.609 334.431L332.605 334.429C331.248 333.505 329.905 332.591 328.606 331.676C328.091 331.313 327.581 330.94 327.074 330.56Z" fill="url(#paint14_linear_13_77)"/>
<path d="M378.303 352.01C379.642 352.605 380.666 352.875 381.4 352.806C381.753 352.773 382.013 352.663 382.236 352.469C382.474 352.261 382.764 351.874 383.018 351.14C383.769 348.972 384.092 346.73 384.196 344.408C382.297 346.994 380.332 349.529 378.303 352.01Z" fill="url(#paint15_linear_13_77)"/>
<path d="M371.954 156.675H398.654C399.341 156.675 399.898 156.117 399.898 155.43C399.898 154.743 399.341 154.186 398.654 154.186H372.533C372.348 155.015 372.155 155.845 371.954 156.675Z" fill="url(#paint16_linear_13_77)"/>
<path d="M374.612 116.3C374.366 117.199 374.15 118.02 373.963 118.775C370.661 118.744 367.44 118.397 364.257 118.054C362.97 117.915 361.688 117.777 360.41 117.661C359.48 117.576 358.178 117.53 356.641 117.475L356.64 117.475H356.624L356.621 117.475L356.533 117.472C354.968 117.416 353.196 117.352 351.444 117.228C349.695 117.104 347.932 116.918 346.384 116.613C344.871 116.315 343.415 115.876 342.387 115.164C341.531 114.572 340.512 113.734 339.584 112.789C338.668 111.856 337.774 110.75 337.247 109.616C336.728 108.501 336.444 107.065 337.3 105.798C338.109 104.604 339.669 103.98 341.712 103.724C345.11 103.3 348.405 103.564 351.573 103.915C352.176 103.982 352.774 104.052 353.366 104.122C355.921 104.421 358.384 104.709 360.874 104.709C361.891 104.709 362.906 104.724 363.917 104.751C364.827 104.775 365.308 103.678 364.66 103.04C358.861 97.3418 352.688 92.0227 346.182 87.123C349.019 83.6661 351.823 80.1806 354.431 76.6248C358.646 70.8765 361.098 64.4503 363.218 58.1074C363.635 56.8574 364.039 55.6139 364.441 54.3791L364.444 54.3703C365.709 50.4741 366.947 46.6651 368.496 43.0145C368.741 42.4374 369.455 42.2388 369.968 42.5992C380.081 49.7065 389.608 57.5909 398.463 66.1657C398.82 66.5118 398.866 67.0685 398.574 67.4715C388.814 80.9507 380.981 95.083 376.016 111.467C375.712 112.47 375.435 113.404 375.184 114.274C373.268 112.051 371.3 109.875 369.281 107.746C369.106 107.561 368.867 107.451 368.613 107.437C366.034 107.298 363.461 107.198 360.874 107.198C358.224 107.198 355.584 106.888 353.02 106.587L353.004 106.585C352.432 106.518 351.862 106.452 351.298 106.389C348.162 106.041 345.111 105.808 342.021 106.194C340.175 106.425 339.548 106.917 339.362 107.193C339.224 107.396 339.139 107.783 339.503 108.567C339.86 109.333 340.533 110.203 341.36 111.045C342.175 111.876 343.074 112.613 343.803 113.118C344.394 113.527 345.429 113.888 346.865 114.171C348.267 114.448 349.913 114.624 351.619 114.745C353.322 114.866 355.052 114.929 356.621 114.984L356.77 114.99C358.264 115.043 359.632 115.091 360.636 115.183C362.004 115.307 363.337 115.451 364.653 115.592C367.939 115.946 371.115 116.289 374.442 116.289C374.5 116.289 374.557 116.293 374.612 116.3Z" fill="url(#paint17_linear_13_77)"/>
<path d="M321.784 115.093C321.243 115.912 320.683 116.72 320.107 117.519C318.553 117.499 316.954 117.578 315.307 117.66C314.875 117.682 314.441 117.703 314.003 117.723C309.641 117.923 304.987 117.952 300.721 115.514C300.102 115.16 299.326 114.752 298.434 114.282L298.372 114.25C297.463 113.771 296.449 113.237 295.419 112.661C293.373 111.518 291.183 110.169 289.526 108.684C287.928 107.252 286.503 105.407 286.686 103.268C286.874 101.075 288.676 99.2551 291.775 97.7053C293.656 96.7648 295.678 96.0095 297.615 95.2859C298.56 94.9327 299.486 94.5867 300.365 94.2307C303.124 93.1134 305.631 91.8296 307.71 89.7508C307.717 89.7442 307.723 89.738 307.728 89.7319L307.743 89.7164C307.747 89.711 307.752 89.7059 307.756 89.701L307.763 89.6924L307.771 89.682C307.776 89.6757 307.78 89.67 307.783 89.665C307.787 89.6597 307.79 89.6551 307.792 89.6513C307.793 89.6501 307.793 89.6488 307.793 89.6475C307.793 89.6461 307.793 89.6446 307.793 89.6432C307.774 89.5573 307.671 89.3304 307.317 88.9767C306.623 88.2827 305.452 87.5718 304.345 86.9954C303.809 86.7162 303.318 86.4835 302.952 86.3144C302.83 86.2578 302.727 86.2109 302.637 86.1699L302.503 86.1088C302.471 86.0942 302.439 86.0794 302.409 86.0654L302.373 86.0483L302.348 86.0366L302.327 86.026L302.308 86.0166C302.294 86.0097 302.28 86.0022 302.265 85.9941C302.256 85.9897 302.245 85.9835 302.232 85.976C302.22 85.9694 302.207 85.9617 302.193 85.9531L302.192 85.9524C302.173 85.9412 302.097 85.8948 302.014 85.8217C301.982 85.7938 301.861 85.6878 301.759 85.513C301.669 85.3591 301.39 84.7644 301.82 84.1618C302.132 83.7229 302.589 83.6609 302.656 83.6518L302.661 83.6512C302.792 83.6327 302.896 83.6397 302.934 83.6427C303.022 83.6496 303.091 83.6646 303.111 83.669C303.142 83.6757 303.168 83.6825 303.185 83.687C303.203 83.692 303.223 83.6976 303.242 83.7035C303.264 83.71 303.286 83.7169 303.308 83.7237L303.364 83.7421C303.404 83.755 303.451 83.7706 303.504 83.7887L303.622 83.8286L303.972 83.948L303.974 83.9484L303.976 83.9493C304.481 84.1218 305.266 84.3903 306.41 84.7715C306.72 84.8749 306.963 85.0887 307.108 85.3546L307.116 85.3686C307.256 85.6242 307.401 85.8903 307.641 86.0545C308.165 86.4127 308.664 86.8036 309.077 87.217C309.561 87.7014 310.056 88.3402 310.224 89.111C310.417 89.992 310.142 90.8383 309.47 91.5106C307.04 93.9402 304.168 95.3755 301.299 96.5375C300.284 96.9488 299.29 97.3194 298.313 97.6836L298.312 97.684C296.454 98.3768 294.657 99.0468 292.888 99.9314C289.973 101.389 289.237 102.65 289.166 103.48C289.091 104.364 289.686 105.485 291.187 106.83C292.63 108.123 294.619 109.363 296.633 110.489C297.633 111.047 298.62 111.568 299.531 112.047L299.619 112.094L299.621 112.095C300.49 112.552 301.299 112.978 301.955 113.353C305.534 115.398 309.519 115.437 313.889 115.237L314.126 115.226L314.275 115.219L314.513 115.207L315.185 115.173L315.21 115.172C317.342 115.063 319.564 114.949 321.784 115.093Z" fill="url(#paint18_linear_13_77)"/>
<path d="M63.8898 74.2488C63.3915 74.6759 62.8909 75.1033 62.3881 75.5301C65.0035 72.7005 67.6876 69.9354 70.4378 67.2374C71.3163 66.3755 71.9234 66.9777 71.0326 67.827C68.5802 70.1653 66.1411 72.3191 63.8898 74.2488Z" fill="url(#paint19_linear_13_77)"/>
<path d="M277.423 63.9886C276.97 63.1648 276.885 62.6614 276.895 62.3497C276.906 62.0506 277.008 61.7825 277.24 61.41C277.31 61.2976 277.401 61.1687 277.503 61.0227C278.02 60.2899 278.839 59.1268 278.839 57.4664C278.839 56.7791 278.282 56.222 277.595 56.222C276.908 56.222 276.351 56.7791 276.351 57.4664C276.351 58.2771 276.064 58.697 275.604 59.371C275.461 59.5811 275.3 59.8159 275.127 60.0949C274.783 60.6476 274.439 61.3504 274.408 62.2644C274.377 63.1658 274.654 64.1175 275.242 65.1873C276.569 67.6008 278.319 69.2974 280.614 70.5633C280.671 70.5945 280.658 70.6803 280.594 70.6922C280.538 70.7028 280.482 70.7133 280.427 70.7237C279.717 70.8598 278.952 71.0267 278.4 71.2445C277.968 71.4154 277.561 71.7053 277.298 72.1594C277.04 72.6065 277.001 73.0761 277.042 73.4649C277.118 74.1794 277.497 74.8799 277.821 75.4035C278.123 75.8903 278.485 76.3867 278.79 76.8047L278.791 76.8059L278.92 76.983C279.294 77.4968 279.487 77.7886 279.547 77.93C280.197 79.4702 281.483 80.4881 282.934 81.163C284.381 81.8361 286.099 82.2202 287.817 82.4454C290.62 82.8126 293.656 82.78 295.877 82.7561L295.885 82.7561C296.373 82.7508 296.822 82.746 297.22 82.746C297.907 82.746 298.464 82.1889 298.464 81.5016C298.464 80.8143 297.907 80.2572 297.22 80.2572C296.779 80.2572 296.298 80.2621 295.786 80.2674L295.78 80.2675C293.556 80.2905 290.748 80.3194 288.14 79.9777C286.542 79.7682 285.105 79.428 283.984 78.9064C282.866 78.3865 282.168 77.7391 281.84 76.9625C281.644 76.4981 281.246 75.9492 280.933 75.5195L280.797 75.3326L280.796 75.3315L280.795 75.33C280.485 74.9047 280.184 74.4923 279.937 74.0926C279.736 73.7689 279.92 73.3722 280.292 73.2909C280.477 73.2507 280.678 73.2097 280.896 73.168C281.309 73.0889 281.705 73.0199 282.102 72.9508C282.415 72.8963 282.729 72.8417 283.053 72.7818C283.674 72.6668 284.402 72.5221 284.853 72.3184C284.971 72.2653 285.181 72.1609 285.37 71.9758C285.573 71.7771 285.905 71.3119 285.744 70.6794C285.615 70.1715 285.242 69.9143 285.109 69.8301C284.935 69.7193 284.75 69.6452 284.6 69.5934C281.108 68.3897 278.941 66.7495 277.423 63.9886Z" fill="url(#paint20_linear_13_77)"/>
<path d="M74.2314 160.694C74.2314 160.006 74.7885 159.449 75.4758 159.449C79.7699 159.449 84.4518 161.51 88.6356 164.078C92.8553 166.668 96.7394 169.883 99.4792 172.412C99.9842 172.878 100.016 173.665 99.5495 174.17C99.0834 174.675 98.2961 174.707 97.7911 174.24C95.125 171.779 91.3713 168.678 87.3336 166.199C83.2601 163.699 79.0652 161.938 75.4758 161.938C74.7885 161.938 74.2314 161.381 74.2314 160.694Z" fill="url(#paint21_linear_13_77)"/>
<defs>
<linearGradient id="paint0_linear_13_77" x1="376.606" y1="83.5633" x2="81.8266" y2="378.342" gradientUnits="userSpaceOnUse">
<stop stop-color="#C7D2FE"/>
<stop offset="1" stop-color="#422006"/>
</linearGradient>
<linearGradient id="paint1_linear_13_77" x1="376.606" y1="83.5633" x2="81.8266" y2="378.342" gradientUnits="userSpaceOnUse">
<stop stop-color="#C7D2FE"/>
<stop offset="1" stop-color="#422006"/>
</linearGradient>
<linearGradient id="paint2_linear_13_77" x1="376.606" y1="83.5633" x2="81.8266" y2="378.342" gradientUnits="userSpaceOnUse">
<stop stop-color="#C7D2FE"/>
<stop offset="1" stop-color="#422006"/>
</linearGradient>
<linearGradient id="paint3_linear_13_77" x1="376.606" y1="83.5633" x2="81.8266" y2="378.342" gradientUnits="userSpaceOnUse">
<stop stop-color="#C7D2FE"/>
<stop offset="1" stop-color="#422006"/>
</linearGradient>
<linearGradient id="paint4_linear_13_77" x1="376.606" y1="83.5633" x2="81.8266" y2="378.342" gradientUnits="userSpaceOnUse">
<stop stop-color="#C7D2FE"/>
<stop offset="1" stop-color="#422006"/>
</linearGradient>
<linearGradient id="paint5_linear_13_77" x1="376.606" y1="83.5633" x2="81.8266" y2="378.342" gradientUnits="userSpaceOnUse">
<stop stop-color="#C7D2FE"/>
<stop offset="1" stop-color="#422006"/>
</linearGradient>
<linearGradient id="paint6_linear_13_77" x1="376.606" y1="83.5633" x2="81.8266" y2="378.342" gradientUnits="userSpaceOnUse">
<stop stop-color="#C7D2FE"/>
<stop offset="1" stop-color="#422006"/>
</linearGradient>
<linearGradient id="paint7_linear_13_77" x1="376.606" y1="83.5633" x2="81.8266" y2="378.342" gradientUnits="userSpaceOnUse">
<stop stop-color="#C7D2FE"/>
<stop offset="1" stop-color="#422006"/>
</linearGradient>
<linearGradient id="paint8_linear_13_77" x1="376.606" y1="83.5633" x2="81.8266" y2="378.342" gradientUnits="userSpaceOnUse">
<stop stop-color="#C7D2FE"/>
<stop offset="1" stop-color="#422006"/>
</linearGradient>
<linearGradient id="paint9_linear_13_77" x1="376.606" y1="83.5633" x2="81.8266" y2="378.342" gradientUnits="userSpaceOnUse">
<stop stop-color="#C7D2FE"/>
<stop offset="1" stop-color="#422006"/>
</linearGradient>
<linearGradient id="paint10_linear_13_77" x1="376.606" y1="83.5633" x2="81.8266" y2="378.342" gradientUnits="userSpaceOnUse">
<stop stop-color="#C7D2FE"/>
<stop offset="1" stop-color="#422006"/>
</linearGradient>
<linearGradient id="paint11_linear_13_77" x1="376.606" y1="83.5633" x2="81.8266" y2="378.342" gradientUnits="userSpaceOnUse">
<stop stop-color="#C7D2FE"/>
<stop offset="1" stop-color="#422006"/>
</linearGradient>
<linearGradient id="paint12_linear_13_77" x1="376.606" y1="83.5633" x2="81.8266" y2="378.342" gradientUnits="userSpaceOnUse">
<stop stop-color="#C7D2FE"/>
<stop offset="1" stop-color="#422006"/>
</linearGradient>
<linearGradient id="paint13_linear_13_77" x1="376.606" y1="83.5633" x2="81.8266" y2="378.342" gradientUnits="userSpaceOnUse">
<stop stop-color="#C7D2FE"/>
<stop offset="1" stop-color="#422006"/>
</linearGradient>
<linearGradient id="paint14_linear_13_77" x1="376.606" y1="83.5633" x2="81.8266" y2="378.342" gradientUnits="userSpaceOnUse">
<stop stop-color="#C7D2FE"/>
<stop offset="1" stop-color="#422006"/>
</linearGradient>
<linearGradient id="paint15_linear_13_77" x1="376.606" y1="83.5633" x2="81.8266" y2="378.342" gradientUnits="userSpaceOnUse">
<stop stop-color="#C7D2FE"/>
<stop offset="1" stop-color="#422006"/>
</linearGradient>
<linearGradient id="paint16_linear_13_77" x1="376.606" y1="83.5633" x2="81.8266" y2="378.342" gradientUnits="userSpaceOnUse">
<stop stop-color="#C7D2FE"/>
<stop offset="1" stop-color="#422006"/>
</linearGradient>
<linearGradient id="paint17_linear_13_77" x1="376.606" y1="83.5633" x2="81.8266" y2="378.342" gradientUnits="userSpaceOnUse">
<stop stop-color="#C7D2FE"/>
<stop offset="1" stop-color="#422006"/>
</linearGradient>
<linearGradient id="paint18_linear_13_77" x1="376.606" y1="83.5633" x2="81.8266" y2="378.342" gradientUnits="userSpaceOnUse">
<stop stop-color="#C7D2FE"/>
<stop offset="1" stop-color="#422006"/>
</linearGradient>
<linearGradient id="paint19_linear_13_77" x1="376.606" y1="83.5633" x2="81.8266" y2="378.342" gradientUnits="userSpaceOnUse">
<stop stop-color="#C7D2FE"/>
<stop offset="1" stop-color="#422006"/>
</linearGradient>
<linearGradient id="paint20_linear_13_77" x1="376.606" y1="83.5633" x2="81.8266" y2="378.342" gradientUnits="userSpaceOnUse">
<stop stop-color="#C7D2FE"/>
<stop offset="1" stop-color="#422006"/>
</linearGradient>
<linearGradient id="paint21_linear_13_77" x1="376.606" y1="83.5633" x2="81.8266" y2="378.342" gradientUnits="userSpaceOnUse">
<stop stop-color="#C7D2FE"/>
<stop offset="1" stop-color="#422006"/>
</linearGradient>
</defs>
</svg>
