<svg width="477" height="477" viewBox="0 0 477 477" fill="none" xmlns="http://www.w3.org/2000/svg">
<path fill-rule="evenodd" clip-rule="evenodd" d="M76.6008 413.829C-64.9425 281.488 -0.350776 45.6908 188.501 5.32582C355.899 -30.4532 506.771 119.652 471.955 287.341C434.488 467.81 210.858 539.357 76.6008 413.829ZM437.345 238.35C437.345 348.09 348.323 437.053 238.509 437.053C128.695 437.053 39.6728 348.09 39.6728 238.35C39.6728 128.609 128.695 39.6463 238.509 39.6463C348.323 39.6463 437.345 128.609 437.345 238.35ZM447.735 238.35C447.735 353.825 354.061 447.436 238.509 447.436C122.956 447.436 29.2823 353.825 29.2823 238.35C29.2823 122.874 122.956 29.2627 238.509 29.2627C354.061 29.2627 447.735 122.874 447.735 238.35Z" fill="#1D2019"/>
<path fill-rule="evenodd" clip-rule="evenodd" d="M268.157 8.88788C268.157 7.14768 270.398 5.36548 273.135 4.92988C280.005 3.83314 280.747 4.90113 275.739 8.68666C270.296 12.8017 268.157 12.8569 268.157 8.88788ZM175.765 12.7972C174.236 12.1781 173.491 10.8558 174.108 9.85637C174.725 8.85913 177.274 8.5761 179.772 9.23061C186.207 10.9111 185.036 22.3561 178.544 21.2373C172.378 20.1737 171.501 18.8138 175.29 16.1825C177.765 14.4645 177.878 13.6552 175.765 12.7972ZM167.612 16.4722C167.074 16.4722 166.021 15.4772 165.268 14.261C164.516 13.0449 164.956 12.0499 166.244 12.0499C167.532 12.0499 168.587 13.0449 168.587 14.261C168.587 15.4772 168.149 16.4722 167.612 16.4722ZM193.407 23.5104C190.026 26.889 187.532 24.397 189.406 19.5148C190.513 16.6314 191.473 16.3462 193.442 18.3141C195.409 20.2798 195.403 21.5159 193.407 23.5104ZM115.493 48.5408C112.884 46.9289 118.201 36.6447 122.122 35.7205C127.536 34.4468 128.494 36.0521 125.786 41.8631C123.135 47.548 118.626 50.4734 115.493 48.5408ZM178.544 54.0621C176.719 54.0621 175.225 53.0671 175.225 51.851C175.225 50.6348 176.719 49.6398 178.544 49.6398C180.37 49.6398 181.863 50.6348 181.863 51.851C181.863 53.0671 180.37 54.0621 178.544 54.0621ZM187.395 66.6437C187.395 62.2391 193.276 58.5774 208.415 53.5536C219.806 49.7725 244.804 49.8565 251.991 53.6995C257.894 56.8571 260.005 56.9809 258.2 54.0621C257.447 52.846 257.888 51.851 259.176 51.851C260.463 51.851 261.519 52.7465 261.519 53.8388C261.519 56.6426 279.076 65.4674 281.579 63.9218C282.716 63.2208 283.645 64.1982 283.645 66.0931C283.645 70.7233 275.151 70.5464 269.909 65.8079C267.639 63.7537 264.077 61.9118 261.99 61.7106C232.232 58.8582 223.904 58.5022 223.904 60.0854C223.904 61.1202 222.054 62.1042 219.793 62.2744C213.053 62.783 199.565 69.1269 199.565 71.7869C199.565 73.2175 201.352 73.6929 203.804 72.9168C212.301 70.2214 210.254 75.7958 199.381 84.9589C193.256 90.1197 187.674 93.7726 186.977 93.0761C186.278 92.3796 183.625 93.2662 181.08 95.0462C175.692 98.8185 168.587 99.3293 168.587 95.944C168.587 94.6571 167.441 94.3099 166.041 95.1767C164.244 96.2845 164.571 97.5382 167.147 99.4199C171.13 102.332 172.148 109.341 168.587 109.341C164.662 109.341 166.24 113.757 170.247 113.985C172.721 114.124 172.121 114.777 168.587 115.789C165.176 116.767 163.293 118.743 163.671 120.943C164.149 123.714 162.589 124.424 156.703 124.114C152.532 123.893 149.446 123.179 149.844 122.524C150.242 121.87 147.651 120.046 144.089 118.469C137.597 115.599 134.685 109.958 140.929 112.353C142.755 113.052 144.248 112.539 144.248 111.212C144.248 109.494 145.105 109.51 147.218 111.263C152.718 115.825 152.685 111.334 147.171 105.39C144.169 102.151 142.779 99.1435 144.085 98.7079C145.392 98.2723 146.461 95.5128 146.461 92.5741C146.461 89.2972 147.744 87.2297 149.78 87.2297C151.605 87.2297 153.099 85.7372 153.099 83.913C153.099 80.1761 156.559 79.4597 158.608 82.772C159.35 83.9683 162.79 82.049 166.255 78.5067C170.181 74.4956 175.354 71.798 179.976 71.3557C185.399 70.8361 187.395 69.5691 187.395 66.6437ZM117.827 60.6957C116.539 60.6957 115.484 59.7006 115.484 58.4845C115.484 57.2683 115.922 56.2733 116.46 56.2733C116.997 56.2733 118.05 57.2683 118.803 58.4845C119.555 59.7006 119.115 60.6957 117.827 60.6957ZM303.094 100.784C301.968 104.158 292.496 98.3519 292.496 94.2878C292.496 90.6305 300.975 92.8262 305.772 97.7284C307.597 99.5946 307.931 100.477 306.513 99.6897C305.097 98.9025 303.557 99.3956 303.094 100.784ZM181.753 107.287C184.603 103.285 190.026 98.6659 193.803 97.023C205.025 92.143 204.997 93.3856 193.679 102.275C178.086 114.524 175.958 115.418 181.753 107.287ZM198.458 107.146C202.109 105.461 211.07 102.922 218.372 101.503C246.838 95.9661 280.764 100.853 291.243 111.997C301.953 123.389 310.197 143.356 310.197 157.905C310.197 167.54 315.802 205.959 318.045 211.701C320.24 217.32 323.597 215.418 329.21 205.382C339.645 186.726 344.19 194.604 341.464 226.631C339.211 253.081 331.664 268.077 323.227 262.865C317.295 259.202 314.253 278.136 314.992 314.138C315.76 351.624 321.178 358.266 327.4 329.353C328.189 325.694 328.651 323.549 329.494 323.387C330.689 323.158 332.649 326.912 337.388 335.987C341.834 344.5 347.115 354.023 349.126 357.15C349.898 358.35 350.507 359.298 350.708 360.324C351.458 364.159 346.515 369.106 323.11 392.529C305.083 410.57 293.757 423.013 288.434 430.737C272.481 434.86 255.751 437.053 238.509 437.053C221.901 437.053 205.769 435.018 190.349 431.185C190.528 429.828 190.4 428.272 189.966 427.198C189.353 425.679 188.851 426.921 188.851 429.962C188.851 430.262 188.856 430.545 188.865 430.81C168.21 425.504 148.852 416.966 131.365 405.766C136.981 401.709 147.725 398.968 152.521 401.953C154.376 403.107 154.849 402.585 153.986 400.336C152.577 396.67 167.339 389.128 171.227 391.529C175.161 393.959 188.501 378.795 188.501 371.892C188.501 368.402 189.437 363.801 190.579 361.667C192.575 357.939 191.575 350.804 186.171 330.196C185.016 325.795 179.699 315.677 174.356 307.715C169.012 299.75 162.914 287.927 160.803 281.441C158.695 274.958 155.21 267.661 153.061 265.229C146.572 257.888 140.681 195.551 147.083 201.948C154.048 208.908 155.544 188.201 149.698 165.766C144.671 146.478 153.364 127.031 167.016 127.031C169.34 127.031 174.876 123.345 179.319 118.841C183.762 114.337 188.391 110.551 189.608 110.429C190.825 110.306 194.807 108.828 198.458 107.146ZM276.146 444.063C270.298 445.124 264.366 445.943 258.359 446.508C258.406 446.576 258.452 446.646 258.498 446.716C261.262 450.875 260.702 452.493 252.562 463.852C246.134 472.823 244.554 476.396 247.015 476.396C248.907 476.396 250.455 475.638 250.455 474.709C250.455 473.783 252.695 472.029 255.434 470.815C258.213 469.586 260.266 466.844 260.08 464.613C259.859 461.975 260.831 461.029 262.93 461.833C264.681 462.506 266.654 461.641 267.318 459.914C267.98 458.187 269.834 457.278 271.436 457.891C273.036 458.506 275.1 457.791 276.018 456.305C277.029 454.671 276.771 454.169 275.368 455.036C274.091 455.826 272.476 454.983 271.777 453.166C271.08 451.348 271.639 449.862 273.02 449.862C274.401 449.862 274.952 449.281 274.241 448.573C273.341 447.673 274.395 445.82 276.146 444.063ZM247.56 447.244C244.559 447.372 241.541 447.436 238.509 447.436C228.797 447.436 219.241 446.775 209.881 445.495C210.851 449.406 210.515 451.006 208.813 451.571C198.823 454.899 195.595 472.606 204.543 475.003C218.613 478.771 235.87 476.639 231.438 471.68C227.265 467.012 227.271 466.979 232.048 468.465C236.106 469.725 237.461 468.624 240.534 461.572C243.352 455.109 245.611 450.401 247.56 447.244ZM202.926 444.425C189.293 442.091 176.112 438.439 163.516 433.604C163.441 433.749 163.35 433.907 163.244 434.079C161.363 437.124 157.447 435.295 157.699 431.489C157.704 431.416 157.709 431.345 157.715 431.277C144.597 425.785 132.158 418.995 120.559 411.069C117.765 411.829 114.427 413.775 110.928 416.807C108.074 419.282 105.27 420.281 104.533 419.089C103.746 417.813 100.356 418.351 96.0457 420.438C88.7926 423.947 89.3613 429.962 96.9462 429.962C98.6234 429.962 99.9952 430.724 99.9952 431.655C99.9952 434.508 122.044 447.958 124.368 446.523C125.567 445.785 126.547 446.211 126.547 447.476C126.547 450.532 143.812 459.237 146.536 457.555C147.711 456.83 148.674 457.148 148.674 458.265C148.674 462.114 177.582 470.185 181.056 467.304C183.54 465.243 183.917 465.396 182.897 468.049C181.967 470.468 183.014 471.293 186.718 471.061C189.524 470.884 192.429 471.598 193.172 472.646C193.916 473.696 194.413 471.479 194.278 467.717C194.104 462.848 193.148 461.219 190.955 462.055C188.541 462.977 188.433 462.559 190.448 460.133C192.249 457.964 192.369 455.317 190.847 451.315C189.592 448.02 189.506 445.082 190.641 444.381C191.723 443.711 192.931 445.338 193.323 447.998C194.509 456.064 198.281 454.82 202.715 444.896C202.787 444.736 202.857 444.579 202.926 444.425ZM159.089 431.847C159.712 433.116 161.032 433.638 162.208 433.097C161.164 432.689 160.124 432.272 159.089 431.847ZM104.657 118.186C100.057 118.186 97.8468 110.014 101.471 106.394C103.701 104.163 111.059 104.627 111.059 107C111.059 108.145 110.107 109.669 108.943 110.387C107.779 111.106 107.388 113.156 108.074 114.94C108.926 117.16 107.848 118.186 104.657 118.186ZM34.4234 125.925C32.6643 124.607 32.0094 121.704 32.8015 118.739C34.5207 112.309 39.0035 112.311 39.6408 118.741C39.9129 121.476 40.4108 125.397 40.7471 127.453C41.3312 131.013 38.4061 133.266 37.7069 129.795C37.5233 128.882 36.0452 127.141 34.4234 125.925ZM438.531 139.192C437.314 139.944 436.318 139.504 436.318 138.217C436.318 136.93 437.314 135.876 438.531 135.876C439.748 135.876 440.743 136.313 440.743 136.851C440.743 137.388 439.748 138.441 438.531 139.192ZM137.48 155.776C136.192 155.776 135.752 154.781 136.504 153.565C137.256 152.349 138.309 151.354 138.847 151.354C139.385 151.354 139.823 152.349 139.823 153.565C139.823 154.781 138.768 155.776 137.48 155.776ZM119.779 171.254C118.491 171.254 118.05 170.259 118.803 169.043C119.555 167.827 120.608 166.832 121.146 166.832C121.684 166.832 122.122 167.827 122.122 169.043C122.122 170.259 121.066 171.254 119.779 171.254ZM268.949 180.442C286.201 181.315 288.106 180.63 280.041 176.446C272.611 172.596 263.484 172.647 258.113 176.572C254.288 179.367 255.365 179.752 268.949 180.442ZM113.141 180.099C111.853 180.099 111.413 179.104 112.165 177.888C112.917 176.672 113.97 175.677 114.508 175.677C115.046 175.677 115.484 176.672 115.484 177.888C115.484 179.104 114.428 180.099 113.141 180.099ZM272.83 203.792C286.989 204.046 287.655 202.312 275.018 198.089C263.652 194.293 259.306 195.108 259.306 201.039C259.306 202.613 264.349 203.641 272.83 203.792ZM185.231 202.812C187.605 204.141 190.676 204.073 193.708 202.622C197.825 200.652 197.332 200.375 189.982 200.539C183.461 200.685 182.366 201.209 185.231 202.812ZM245.346 204.389C246.796 204.406 248.597 203.427 249.349 202.211C251.046 199.464 250.281 199.464 246.03 202.211C244.037 203.498 243.762 204.367 245.346 204.389ZM337.262 208.844C337.262 213.101 337.718 214.843 338.273 212.714C338.831 210.584 338.831 207.104 338.273 204.975C337.718 202.845 337.262 204.588 337.262 208.844ZM330.111 228.745C331.29 230.569 332.202 231.067 332.133 229.85C331.903 225.662 328.217 218.609 328.089 222.111C328.02 223.936 328.932 226.921 330.111 228.745ZM237.204 255.927C239.625 256.559 241.605 256.281 241.605 255.308C241.605 252.709 235.303 250.737 233.956 252.913C233.323 253.937 234.783 255.294 237.204 255.927ZM246.583 283.677C253.821 283.874 259.306 283.071 259.306 281.813C259.306 280.597 258.558 279.759 257.647 279.949C256.735 280.141 251.009 280.979 244.924 281.813C239.574 282.547 236.811 282.925 236.823 283.16C236.836 283.411 240.013 283.498 246.583 283.677ZM71.2662 338.176C70.0293 338.939 69.0181 338.012 69.0181 336.117C69.0181 332.232 70.3457 331.662 72.242 334.729C72.9434 335.861 72.5031 337.411 71.2662 338.176ZM157.56 413.356C158.796 412.591 159.237 411.041 158.535 409.908C156.639 406.842 155.312 407.412 155.312 411.297C155.312 413.192 156.323 414.118 157.56 413.356ZM186.72 415.589C186.764 419.237 187.26 420.462 187.822 418.311C188.384 416.159 188.346 413.174 187.74 411.677C187.134 410.18 186.676 411.94 186.72 415.589ZM128.795 428.834C130.032 428.069 130.472 426.519 129.771 425.387C127.875 422.32 126.547 422.89 126.547 426.775C126.547 428.67 127.558 429.597 128.795 428.834ZM336.047 445.855C335.342 447.618 334.817 447.094 334.711 444.518C334.616 442.187 335.138 440.882 335.873 441.617C336.607 442.351 336.687 444.259 336.047 445.855ZM321.024 450.822C322.415 451.68 323.473 450.844 323.473 448.887C323.473 446.992 325.214 445.519 327.345 445.614C329.657 445.718 330.104 446.238 328.451 446.904C323.747 448.801 325.228 453.99 330.111 452.714C333.189 451.91 334.536 452.646 334.536 455.131C334.536 457.099 333.622 458.707 332.505 458.707C331.388 458.707 328.735 459.372 326.61 460.188C323.741 461.289 323.168 460.863 324.38 458.53C325.278 456.803 324.447 457.323 322.53 459.682C320.559 462.112 319.048 462.775 319.048 461.21C319.048 459.691 318.036 459.072 316.8 459.834C315.563 460.6 315.122 462.15 315.824 463.282C316.523 464.414 314.746 465.34 311.876 465.34C309.007 465.34 305.462 466.534 304.002 467.994C301.937 470.057 301.346 469.871 301.346 467.158C301.346 462.893 306.668 458.13 308.92 460.381C309.821 461.278 309.971 459.032 309.257 455.386C308.542 451.739 308.557 450.041 309.292 451.613C310.328 453.829 311.334 453.882 313.781 451.852C316.306 449.758 316.68 449.904 315.651 452.582C314.906 454.523 315.872 456.502 317.959 457.303C320.807 458.395 321.243 457.71 320.061 453.993C319.061 450.844 319.375 449.805 321.024 450.822ZM268.312 475.195C267.287 475.828 265.929 474.369 265.296 471.95C264.663 469.53 264.942 467.551 265.915 467.551C268.515 467.551 270.489 473.849 268.312 475.195ZM259.176 476.396C257.888 476.396 257.447 475.401 258.2 474.185C258.952 472.969 260.005 471.974 260.543 471.974C261.081 471.974 261.519 472.969 261.519 474.185C261.519 475.401 260.463 476.396 259.176 476.396Z" fill="#EFD9CB"/>
<path fill-rule="evenodd" clip-rule="evenodd" d="M268.157 8.88788C268.157 7.14768 270.398 5.36548 273.135 4.92988C280.005 3.83314 280.747 4.90113 275.739 8.68666C270.296 12.8017 268.157 12.8569 268.157 8.88788ZM175.765 12.7972C174.236 12.1781 173.491 10.8558 174.108 9.85637C174.725 8.85913 177.274 8.5761 179.772 9.23061C186.207 10.9111 185.036 22.3561 178.544 21.2373C172.378 20.1737 171.501 18.8138 175.29 16.1825C177.765 14.4645 177.878 13.6552 175.765 12.7972ZM167.612 16.4722C167.074 16.4722 166.021 15.4772 165.268 14.261C164.516 13.0449 164.956 12.0499 166.244 12.0499C167.532 12.0499 168.587 13.0449 168.587 14.261C168.587 15.4772 168.149 16.4722 167.612 16.4722ZM193.407 23.5104C190.026 26.889 187.532 24.397 189.406 19.5148C190.513 16.6314 191.473 16.3462 193.442 18.3141C195.409 20.2798 195.403 21.5159 193.407 23.5104ZM115.493 48.5408C112.884 46.9289 118.201 36.6447 122.122 35.7205C127.536 34.4468 128.494 36.0521 125.786 41.8631C123.135 47.548 118.626 50.4734 115.493 48.5408ZM178.544 54.0621C176.719 54.0621 175.225 53.0671 175.225 51.851C175.225 50.6348 176.719 49.6398 178.544 49.6398C180.37 49.6398 181.863 50.6348 181.863 51.851C181.863 53.0671 180.37 54.0621 178.544 54.0621ZM187.395 66.6437C187.395 62.2391 193.276 58.5774 208.415 53.5536C219.806 49.7725 244.804 49.8565 251.991 53.6995C257.894 56.8571 260.005 56.9809 258.2 54.0621C257.447 52.846 257.888 51.851 259.176 51.851C260.463 51.851 261.519 52.7465 261.519 53.8388C261.519 56.6426 279.076 65.4674 281.579 63.9218C282.716 63.2208 283.645 64.1982 283.645 66.0931C283.645 70.7233 275.151 70.5464 269.909 65.8079C267.639 63.7537 264.077 61.9118 261.99 61.7106C232.232 58.8582 223.904 58.5022 223.904 60.0854C223.904 61.1202 222.054 62.1042 219.793 62.2744C213.053 62.783 199.565 69.1269 199.565 71.7869C199.565 73.2175 201.352 73.6929 203.804 72.9168C212.301 70.2214 210.254 75.7958 199.381 84.9589C193.256 90.1197 187.674 93.7726 186.977 93.0761C186.278 92.3796 183.625 93.2662 181.08 95.0462C175.692 98.8185 168.587 99.3293 168.587 95.944C168.587 94.6571 167.441 94.3099 166.041 95.1767C164.244 96.2845 164.571 97.5382 167.147 99.4199C171.13 102.332 172.148 109.341 168.587 109.341C164.662 109.341 166.24 113.757 170.247 113.985C172.721 114.124 172.121 114.777 168.587 115.789C165.176 116.767 163.293 118.743 163.671 120.943C164.149 123.714 162.589 124.424 156.703 124.114C152.532 123.893 149.446 123.179 149.844 122.524C150.242 121.87 147.651 120.046 144.089 118.469C137.597 115.599 134.685 109.958 140.929 112.353C142.755 113.052 144.248 112.539 144.248 111.212C144.248 109.494 145.105 109.51 147.218 111.263C152.718 115.825 152.685 111.334 147.171 105.39C144.169 102.151 142.779 99.1435 144.085 98.7079C145.392 98.2723 146.461 95.5128 146.461 92.5741C146.461 89.2972 147.744 87.2297 149.78 87.2297C151.605 87.2297 153.099 85.7372 153.099 83.913C153.099 80.1761 156.559 79.4597 158.608 82.772C159.35 83.9683 162.79 82.049 166.255 78.5067C170.181 74.4956 175.354 71.798 179.976 71.3557C185.399 70.8361 187.395 69.5691 187.395 66.6437ZM117.827 60.6957C116.539 60.6957 115.484 59.7006 115.484 58.4845C115.484 57.2683 115.922 56.2733 116.46 56.2733C116.997 56.2733 118.05 57.2683 118.803 58.4845C119.555 59.7006 119.115 60.6957 117.827 60.6957ZM303.094 100.784C301.968 104.158 292.496 98.3519 292.496 94.2878C292.496 90.6305 300.975 92.8262 305.772 97.7284C307.597 99.5946 307.931 100.477 306.513 99.6897C305.097 98.9025 303.557 99.3956 303.094 100.784ZM181.753 107.287C184.603 103.285 190.026 98.6659 193.803 97.023C205.025 92.143 204.997 93.3856 193.679 102.275C178.086 114.524 175.958 115.418 181.753 107.287ZM198.458 107.146C202.109 105.461 211.07 102.922 218.372 101.503C246.838 95.9661 280.764 100.853 291.243 111.997C301.953 123.389 310.197 143.356 310.197 157.905C310.197 167.54 315.802 205.959 318.045 211.701C320.24 217.32 323.597 215.418 329.21 205.382C339.645 186.726 344.19 194.604 341.464 226.631C339.211 253.081 331.664 268.077 323.227 262.865C317.295 259.202 314.253 278.136 314.992 314.138C315.76 351.624 321.178 358.266 327.4 329.353C328.189 325.694 328.651 323.549 329.494 323.387C330.689 323.158 332.649 326.912 337.388 335.987C341.834 344.5 347.115 354.023 349.126 357.15C349.898 358.35 350.507 359.298 350.708 360.324C351.458 364.159 346.515 369.106 323.11 392.529C305.083 410.57 293.757 423.013 288.434 430.737C272.481 434.86 255.751 437.053 238.509 437.053C226.794 437.053 215.316 436.041 204.158 434.099C205.018 433.192 205.956 432.201 206.977 431.122C219.777 417.594 223.408 408.518 215.155 410.676C212.778 411.297 209.046 410.344 206.857 408.557C204.671 406.771 203.926 405.816 205.202 406.435C208.645 408.104 214.507 403.821 211.588 401.769C210.291 400.858 206.207 395.633 202.512 390.16C198.819 384.688 195.228 378.718 194.535 376.893C193.513 374.2 193.243 374.286 193.101 377.342C193.006 379.414 194.095 383.668 195.522 386.799C197.507 391.153 197.507 393.101 195.522 395.085C192.568 398.037 191.922 426.868 194.77 428.628C195.372 428.999 195.739 430.481 195.816 432.462C193.984 432.061 192.161 431.635 190.349 431.185C190.528 429.828 190.4 428.272 189.966 427.198C189.353 425.679 188.851 426.921 188.851 429.962C188.851 430.262 188.856 430.545 188.865 430.81C168.21 425.504 148.852 416.966 131.365 405.766C136.981 401.709 147.725 398.968 152.521 401.953C154.376 403.107 154.849 402.585 153.986 400.336C152.577 396.67 167.339 389.128 171.227 391.529C175.161 393.959 188.501 378.795 188.501 371.892C188.501 368.402 189.437 363.801 190.579 361.667C192.575 357.939 191.575 350.804 186.171 330.196C185.016 325.795 179.699 315.677 174.356 307.715C169.012 299.75 162.914 287.927 160.803 281.441C158.695 274.958 155.21 267.661 153.061 265.229C146.572 257.888 140.681 195.551 147.083 201.948C154.048 208.908 155.544 188.201 149.698 165.766C144.671 146.478 153.364 127.031 167.016 127.031C169.34 127.031 174.876 123.345 179.319 118.841C183.762 114.337 188.391 110.551 189.608 110.429C190.825 110.306 194.807 108.828 198.458 107.146ZM276.146 444.063C270.298 445.124 264.366 445.943 258.359 446.508C258.406 446.576 258.452 446.646 258.498 446.716C261.262 450.875 260.702 452.493 252.562 463.852C246.134 472.823 244.554 476.396 247.015 476.396C248.907 476.396 250.455 475.638 250.455 474.709C250.455 473.783 252.695 472.029 255.434 470.815C258.213 469.586 260.266 466.844 260.08 464.613C259.859 461.975 260.831 461.029 262.93 461.833C264.681 462.506 266.654 461.641 267.318 459.914C267.98 458.187 269.834 457.278 271.436 457.891C273.036 458.506 275.1 457.791 276.018 456.305C277.029 454.671 276.771 454.169 275.368 455.036C274.091 455.826 272.476 454.983 271.777 453.166C271.08 451.348 271.639 449.862 273.02 449.862C274.401 449.862 274.952 449.281 274.241 448.573C273.341 447.673 274.395 445.82 276.146 444.063ZM247.56 447.244C244.559 447.372 241.541 447.436 238.509 447.436C228.797 447.436 219.241 446.775 209.881 445.495C210.851 449.406 210.515 451.006 208.813 451.571C198.823 454.899 195.595 472.606 204.543 475.003C218.613 478.771 235.87 476.639 231.438 471.68C227.265 467.012 227.271 466.979 232.048 468.465C236.106 469.725 237.461 468.624 240.534 461.572C243.352 455.109 245.611 450.401 247.56 447.244ZM202.926 444.425C189.293 442.091 176.112 438.439 163.516 433.604C163.441 433.749 163.35 433.907 163.244 434.079C161.363 437.124 157.447 435.295 157.699 431.489C157.704 431.416 157.709 431.345 157.715 431.277C144.597 425.785 132.158 418.995 120.559 411.069C117.765 411.829 114.427 413.775 110.928 416.807C108.074 419.282 105.27 420.281 104.533 419.089C103.746 417.813 100.356 418.351 96.0457 420.438C88.7926 423.947 89.3613 429.962 96.9462 429.962C98.6234 429.962 99.9952 430.724 99.9952 431.655C99.9952 434.508 122.044 447.958 124.368 446.523C125.567 445.785 126.547 446.211 126.547 447.476C126.547 450.532 143.812 459.237 146.536 457.555C147.711 456.83 148.674 457.148 148.674 458.265C148.674 462.114 177.582 470.185 181.056 467.304C183.54 465.243 183.917 465.396 182.897 468.049C181.967 470.468 183.014 471.293 186.718 471.061C189.524 470.884 192.429 471.598 193.172 472.646C193.916 473.696 194.413 471.479 194.278 467.717C194.104 462.848 193.148 461.219 190.955 462.055C188.541 462.977 188.433 462.559 190.448 460.133C192.249 457.964 192.369 455.317 190.847 451.315C189.592 448.02 189.506 445.082 190.641 444.381C191.723 443.711 192.931 445.338 193.323 447.998C194.509 456.064 198.281 454.82 202.715 444.896C202.787 444.736 202.857 444.579 202.926 444.425ZM159.089 431.847C159.712 433.116 161.032 433.638 162.208 433.097C161.164 432.689 160.124 432.272 159.089 431.847ZM104.657 118.186C100.057 118.186 97.8468 110.014 101.471 106.394C103.701 104.163 111.059 104.627 111.059 107C111.059 108.145 110.107 109.669 108.943 110.387C107.779 111.106 107.388 113.156 108.074 114.94C108.926 117.16 107.848 118.186 104.657 118.186ZM34.4234 125.925C32.6643 124.607 32.0094 121.704 32.8015 118.739C34.5207 112.309 39.0035 112.311 39.6408 118.741C39.9129 121.476 40.4108 125.397 40.7471 127.453C41.3312 131.013 38.4061 133.266 37.7069 129.795C37.5233 128.882 36.0452 127.141 34.4234 125.925ZM227.077 142.746C229.061 139.535 230.637 121.972 229.314 117.804C228.608 115.581 226.355 113.912 224.309 114.095C194.135 116.78 164.162 130.009 164.162 140.638C164.162 144.221 162.711 149.956 160.936 153.386C157.568 159.893 158.602 176.639 162.233 174.396C163.293 173.742 164.162 174.863 164.162 176.888C164.162 179.526 165.262 180.123 168.034 178.991C175.101 176.103 185.054 173.835 195.98 172.621C201.919 171.96 208.594 169.777 210.814 167.77C214.157 164.747 216.073 164.543 221.957 166.593C235.507 171.314 240.985 159.579 230.243 148.844C227.884 146.487 226.459 143.743 227.077 142.746ZM438.531 139.192C437.314 139.944 436.318 139.504 436.318 138.217C436.318 136.93 437.314 135.876 438.531 135.876C439.748 135.876 440.743 136.313 440.743 136.851C440.743 137.388 439.748 138.441 438.531 139.192ZM137.48 155.776C136.192 155.776 135.752 154.781 136.504 153.565C137.256 152.349 138.309 151.354 138.847 151.354C139.385 151.354 139.823 152.349 139.823 153.565C139.823 154.781 138.768 155.776 137.48 155.776ZM119.779 171.254C118.491 171.254 118.05 170.259 118.803 169.043C119.555 167.827 120.608 166.832 121.146 166.832C121.684 166.832 122.122 167.827 122.122 169.043C122.122 170.259 121.066 171.254 119.779 171.254ZM268.949 180.442C286.201 181.315 288.106 180.63 280.041 176.446C272.611 172.596 263.484 172.647 258.113 176.572C254.288 179.367 255.365 179.752 268.949 180.442ZM113.141 180.099C111.853 180.099 111.413 179.104 112.165 177.888C112.917 176.672 113.97 175.677 114.508 175.677C115.046 175.677 115.484 176.672 115.484 177.888C115.484 179.104 114.428 180.099 113.141 180.099ZM210.628 244.986C210.628 265.123 219.262 242.996 221.483 217.165C223.346 195.502 219.434 185.954 215.173 201.764C213.781 206.932 213.338 212.283 214.19 213.66C215.1 215.133 214.752 215.553 213.34 214.682C211.944 213.819 210.648 215.268 210.232 218.149C208.953 227.051 185.919 226.253 170.145 216.762C162.922 212.415 159.912 210.604 158.525 211.45C157.534 212.054 157.371 214.013 157.09 217.371C156.057 229.735 159.447 251.515 162.95 255.014C167.459 259.522 182.16 259.684 180.737 255.208C180.047 253.037 181.841 250.901 185.74 249.249C189.083 247.834 195.245 243.885 199.43 240.475C205.824 235.263 206.762 234.98 205.304 238.695C204.348 241.127 202.994 244.61 202.297 246.434C201.388 248.809 202.39 248.555 205.826 245.539C210.072 241.815 210.628 241.751 210.628 244.986ZM272.83 203.792C286.989 204.046 287.655 202.312 275.018 198.089C263.652 194.293 259.306 195.108 259.306 201.039C259.306 202.613 264.349 203.641 272.83 203.792ZM185.231 202.812C187.605 204.141 190.676 204.073 193.708 202.622C197.825 200.652 197.332 200.375 189.982 200.539C183.461 200.685 182.366 201.209 185.231 202.812ZM245.346 204.389C246.796 204.406 248.597 203.427 249.349 202.211C251.046 199.464 250.281 199.464 246.03 202.211C244.037 203.498 243.762 204.367 245.346 204.389ZM337.262 208.844C337.262 213.101 337.718 214.843 338.273 212.714C338.831 210.584 338.831 207.104 338.273 204.975C337.718 202.845 337.262 204.588 337.262 208.844ZM330.111 228.745C331.29 230.569 332.202 231.067 332.133 229.85C331.903 225.662 328.217 218.609 328.089 222.111C328.02 223.936 328.932 226.921 330.111 228.745ZM151.061 227.823C151.167 230.399 151.692 230.923 152.397 229.161C153.037 227.564 152.957 225.656 152.223 224.922C151.488 224.188 150.966 225.492 151.061 227.823ZM154.013 261.351C157.048 264.385 157.774 259.416 155.36 252.11C153.929 247.772 151.942 244.223 150.948 244.223C149.07 244.223 151.725 259.067 154.013 261.351ZM189.782 266.304C197.996 266.246 203.99 263.571 203.919 259.995C203.673 247.361 177.438 258.122 177.438 270.861C177.438 272.796 178.682 272.528 181.485 269.994C183.711 267.982 187.444 266.321 189.782 266.304ZM237.204 255.927C239.625 256.559 241.605 256.281 241.605 255.308C241.605 252.709 235.303 250.737 233.956 252.913C233.323 253.937 234.783 255.294 237.204 255.927ZM246.583 283.677C253.821 283.874 259.306 283.071 259.306 281.813C259.306 280.597 258.558 279.759 257.647 279.949C256.735 280.141 251.009 280.979 244.924 281.813C239.574 282.547 236.811 282.925 236.823 283.16C236.836 283.411 240.013 283.498 246.583 283.677ZM71.2662 338.176C70.0293 338.939 69.0181 338.012 69.0181 336.117C69.0181 332.232 70.3457 331.662 72.242 334.729C72.9434 335.861 72.5031 337.411 71.2662 338.176ZM157.56 413.356C158.796 412.591 159.237 411.041 158.535 409.908C156.639 406.842 155.312 407.412 155.312 411.297C155.312 413.192 156.323 414.118 157.56 413.356ZM186.72 415.589C186.764 419.237 187.26 420.462 187.822 418.311C188.384 416.159 188.346 413.174 187.74 411.677C187.134 410.18 186.676 411.94 186.72 415.589ZM241.105 423.713C242.344 424.951 243.851 425.062 244.528 423.967C245.194 422.892 244.933 420.708 243.948 419.116C242.587 416.918 241.766 416.856 240.525 418.861C239.627 420.314 239.888 422.497 241.105 423.713ZM128.795 428.834C130.032 428.069 130.472 426.519 129.771 425.387C127.875 422.32 126.547 422.89 126.547 426.775C126.547 428.67 127.558 429.597 128.795 428.834ZM336.047 445.855C335.342 447.618 334.817 447.094 334.711 444.518C334.616 442.187 335.138 440.882 335.873 441.617C336.607 442.351 336.687 444.259 336.047 445.855ZM321.024 450.822C322.415 451.68 323.473 450.844 323.473 448.887C323.473 446.992 325.214 445.519 327.345 445.614C329.657 445.718 330.104 446.238 328.451 446.904C323.747 448.801 325.228 453.99 330.111 452.714C333.189 451.91 334.536 452.646 334.536 455.131C334.536 457.099 333.622 458.707 332.505 458.707C331.388 458.707 328.735 459.372 326.61 460.188C323.741 461.289 323.168 460.863 324.38 458.53C325.278 456.803 324.447 457.323 322.53 459.682C320.559 462.112 319.048 462.775 319.048 461.21C319.048 459.691 318.036 459.072 316.8 459.834C315.563 460.6 315.122 462.15 315.824 463.282C316.523 464.414 314.746 465.34 311.876 465.34C309.007 465.34 305.462 466.534 304.002 467.994C301.937 470.057 301.346 469.871 301.346 467.158C301.346 462.893 306.668 458.13 308.92 460.381C309.821 461.278 309.971 459.032 309.257 455.386C308.542 451.739 308.557 450.041 309.292 451.613C310.328 453.829 311.334 453.882 313.781 451.852C316.306 449.758 316.68 449.904 315.651 452.582C314.906 454.523 315.872 456.502 317.959 457.303C320.807 458.395 321.243 457.71 320.061 453.993C319.061 450.844 319.375 449.805 321.024 450.822ZM268.312 475.195C267.287 475.828 265.929 474.369 265.296 471.95C264.663 469.53 264.942 467.551 265.915 467.551C268.515 467.551 270.489 473.849 268.312 475.195ZM259.176 476.396C257.888 476.396 257.447 475.401 258.2 474.185C258.952 472.969 260.005 471.974 260.543 471.974C261.081 471.974 261.519 472.969 261.519 474.185C261.519 475.401 260.463 476.396 259.176 476.396Z" fill="#CBAB92"/>
<path fill-rule="evenodd" clip-rule="evenodd" d="M268.157 8.88788C268.157 7.14768 270.398 5.36548 273.135 4.92988C280.005 3.83314 280.747 4.90113 275.739 8.68666C270.296 12.8017 268.157 12.8569 268.157 8.88788ZM175.765 12.7972C174.236 12.1781 173.491 10.8558 174.108 9.85637C174.725 8.85913 177.274 8.5761 179.772 9.23061C186.207 10.9111 185.036 22.3561 178.544 21.2373C172.378 20.1737 171.501 18.8138 175.29 16.1825C177.765 14.4645 177.878 13.6552 175.765 12.7972ZM167.612 16.4722C167.074 16.4722 166.021 15.4772 165.268 14.261C164.516 13.0449 164.956 12.0499 166.244 12.0499C167.532 12.0499 168.587 13.0449 168.587 14.261C168.587 15.4772 168.149 16.4722 167.612 16.4722ZM193.407 23.5104C190.026 26.889 187.532 24.397 189.406 19.5148C190.513 16.6314 191.473 16.3462 193.442 18.3141C195.409 20.2798 195.403 21.5159 193.407 23.5104ZM115.493 48.5408C112.884 46.9289 118.201 36.6447 122.122 35.7205C127.536 34.4468 128.494 36.0521 125.786 41.8631C123.135 47.548 118.626 50.4734 115.493 48.5408ZM178.544 54.0621C176.719 54.0621 175.225 53.0671 175.225 51.851C175.225 50.6348 176.719 49.6398 178.544 49.6398C180.37 49.6398 181.863 50.6348 181.863 51.851C181.863 53.0671 180.37 54.0621 178.544 54.0621ZM187.395 66.6437C187.395 62.2391 193.276 58.5774 208.415 53.5536C219.806 49.7725 244.804 49.8565 251.991 53.6995C257.894 56.8571 260.005 56.9809 258.2 54.0621C257.447 52.846 257.888 51.851 259.176 51.851C260.463 51.851 261.519 52.7465 261.519 53.8388C261.519 56.6426 279.076 65.4674 281.579 63.9218C282.716 63.2208 283.645 64.1982 283.645 66.0931C283.645 70.7233 275.151 70.5464 269.909 65.8079C267.639 63.7537 264.077 61.9118 261.99 61.7106C232.232 58.8582 223.904 58.5022 223.904 60.0854C223.904 61.1202 222.054 62.1042 219.793 62.2744C213.053 62.783 199.565 69.1269 199.565 71.7869C199.565 73.2175 201.352 73.6929 203.804 72.9168C212.301 70.2214 210.254 75.7958 199.381 84.9589C193.256 90.1197 187.674 93.7726 186.977 93.0761C186.278 92.3796 183.625 93.2662 181.08 95.0462C175.692 98.8185 168.587 99.3293 168.587 95.944C168.587 94.6571 167.441 94.3099 166.041 95.1767C164.244 96.2845 164.571 97.5382 167.147 99.4199C171.13 102.332 172.148 109.341 168.587 109.341C164.662 109.341 166.24 113.757 170.247 113.985C172.721 114.124 172.121 114.777 168.587 115.789C165.176 116.767 163.293 118.743 163.671 120.943C164.149 123.714 162.589 124.424 156.703 124.114C152.532 123.893 149.446 123.179 149.844 122.524C150.242 121.87 147.651 120.046 144.089 118.469C137.597 115.599 134.685 109.958 140.929 112.353C142.755 113.052 144.248 112.539 144.248 111.212C144.248 109.494 145.105 109.51 147.218 111.263C152.718 115.825 152.685 111.334 147.171 105.39C144.169 102.151 142.779 99.1435 144.085 98.7079C145.392 98.2723 146.461 95.5128 146.461 92.5741C146.461 89.2972 147.744 87.2297 149.78 87.2297C151.605 87.2297 153.099 85.7372 153.099 83.913C153.099 80.1761 156.559 79.4597 158.608 82.772C159.35 83.9683 162.79 82.049 166.255 78.5067C170.181 74.4956 175.354 71.798 179.976 71.3557C185.399 70.8361 187.395 69.5691 187.395 66.6437ZM117.827 60.6957C116.539 60.6957 115.484 59.7006 115.484 58.4845C115.484 57.2683 115.922 56.2733 116.46 56.2733C116.997 56.2733 118.05 57.2683 118.803 58.4845C119.555 59.7006 119.115 60.6957 117.827 60.6957ZM303.094 100.784C301.968 104.158 292.496 98.3519 292.496 94.2878C292.496 90.6305 300.975 92.8262 305.772 97.7284C307.597 99.5946 307.931 100.477 306.513 99.6897C305.097 98.9025 303.557 99.3956 303.094 100.784ZM181.753 107.287C184.603 103.285 190.026 98.6659 193.803 97.023C205.025 92.143 204.997 93.3856 193.679 102.275C178.086 114.524 175.958 115.418 181.753 107.287ZM198.458 107.146C202.109 105.461 211.07 102.922 218.372 101.503C246.838 95.9661 280.764 100.853 291.243 111.997C301.953 123.389 310.197 143.356 310.197 157.905C310.197 167.54 315.802 205.959 318.045 211.701C320.24 217.32 323.597 215.418 329.21 205.382C339.645 186.726 344.19 194.604 341.464 226.631C339.211 253.081 331.664 268.077 323.227 262.865C317.295 259.202 314.253 278.136 314.992 314.138C315.76 351.624 321.178 358.266 327.4 329.353C328.189 325.694 328.651 323.549 329.494 323.387C330.689 323.158 332.649 326.912 337.388 335.987C341.834 344.5 347.115 354.023 349.126 357.15C349.898 358.35 350.507 359.298 350.708 360.324C351.458 364.159 346.515 369.106 323.11 392.529C305.083 410.57 293.757 423.013 288.434 430.737C285.089 431.602 281.71 432.381 278.3 433.073C278.254 432.611 278.118 432.181 277.879 431.795C277.255 430.786 277.908 429.962 279.326 429.962C280.744 429.962 281.439 428.717 280.868 427.198C280.3 425.679 280.565 422.444 281.461 420.011C282.357 417.579 282.216 413.908 281.149 411.854C279.961 409.568 280.083 407.578 281.464 406.727C282.703 405.959 283.145 404.407 282.444 403.275C280.26 399.741 274.202 401.008 268.495 406.191C262.937 411.24 263.857 407.744 269.956 400.65C276.501 393.035 271.164 395.071 253.748 406.833C244.025 413.398 233.422 419.215 230.183 419.761C221.87 421.162 213.615 426.95 208.07 434.739C207.395 434.636 206.721 434.528 206.047 434.418C210.896 428.394 217.792 421.956 223.532 419.001C228.661 416.361 228.608 416.254 215.573 402.689C201.397 387.936 195.126 377.84 195.161 369.818C195.177 366.291 196.87 368.354 200.686 376.546C206.793 389.659 221.379 407.419 229.634 411.797C235.363 414.835 243.322 405.267 238.109 401.61C233.153 398.134 228.083 387.591 230.139 385.037C238.965 374.068 235.719 365.375 217.874 352.203C211.511 347.505 202.299 339.496 197.403 334.403C190.136 326.846 188.47 325.937 188.333 329.462C188.211 332.564 187.435 331.898 185.567 327.091C184.138 323.414 179.874 315.951 176.09 310.507C167.125 297.61 161.297 286.149 162.892 284.555C163.591 283.858 164.162 284.385 164.162 285.727C164.162 294.072 194.655 330.459 201.649 330.459C207.373 330.459 219.478 321.921 219.478 317.882C219.478 316.285 220.972 314.981 222.797 314.981C224.623 314.981 226.116 314.092 226.116 313.006C226.116 310.468 220.554 308.347 213.896 308.347C205.955 308.347 205.76 305.468 213.106 296.564C216.788 292.099 218.673 288.446 217.297 288.446C215.918 288.446 215.407 287.451 216.159 286.235C217.013 284.856 212.537 284.024 204.251 284.024C196.949 284.024 190.36 285.019 189.608 286.235C185.68 292.584 180.529 284.015 184.178 277.203C185.99 273.817 187.36 273.386 190.661 275.151C195.321 277.643 206.178 278.109 211.553 276.048C217 273.959 215.71 263.947 209.108 257.059C203.707 251.425 204.41 247.739 209.849 253.174C212.128 255.451 223.76 251.894 224.01 248.842C224.07 248.126 224.457 241.072 224.873 233.167C225.289 225.262 226.309 215.266 227.141 210.952C228.161 205.667 227.437 200.07 224.921 193.791C221.499 185.24 223.574 174.609 227.833 178.867C228.433 179.464 231.411 177.996 234.456 175.604C237.498 173.211 241.481 171.254 243.306 171.254C256.704 171.254 270.445 160.592 261.07 157.47C259.6 156.979 258.229 152.044 258.005 146.429C257.784 140.844 256.974 135.261 256.208 134.023C255.443 132.784 256.753 131.157 259.118 130.407C263.506 129.016 263.57 115.553 259.211 110.75C250.053 100.66 195.854 109.293 180.757 123.245C178.323 125.494 173.575 127.891 170.203 128.574C156.451 131.354 153.143 139.661 154.28 168.563C155.418 197.477 153.663 219.922 150.636 215.151C149.459 213.293 148.729 217.116 148.707 225.245C148.66 243.237 147.333 240.137 145.467 217.689C144.204 202.456 144.443 199.418 146.733 201.658C148.286 203.179 150.355 204.422 151.329 204.422C154.334 204.422 153.283 179.524 149.698 165.766C144.671 146.478 153.364 127.031 167.016 127.031C169.34 127.031 174.876 123.345 179.319 118.841C183.762 114.337 188.391 110.551 189.608 110.429C190.825 110.306 194.807 108.828 198.458 107.146ZM191.138 431.379C191.94 407.532 192.403 359.236 191.504 359.213C191.329 359.208 190.583 360.778 189.844 362.702C189.105 364.626 188.501 368.907 188.501 372.219C188.501 378.813 175.026 393.877 171.227 391.529C167.339 389.128 152.577 396.67 153.986 400.336C154.849 402.585 154.376 403.107 152.521 401.953C147.725 398.968 136.981 401.709 131.365 405.766C148.852 416.966 168.21 425.504 188.865 430.81C188.856 430.545 188.851 430.262 188.851 429.962C188.851 426.921 189.353 425.679 189.966 427.198C190.4 428.272 190.528 429.828 190.349 431.185C190.612 431.25 190.875 431.315 191.138 431.379ZM276.146 444.063C273.487 444.545 270.809 444.978 268.115 445.359C265.334 446.856 262.659 447.43 261.097 446.232C260.31 446.317 259.521 446.397 258.731 446.472C258.792 446.589 258.855 446.708 258.919 446.831C261.027 450.853 260.092 453.345 252.48 463.967C246.101 472.869 244.55 476.396 247.015 476.396C248.907 476.396 250.455 475.638 250.455 474.709C250.455 473.783 252.695 472.029 255.434 470.815C258.213 469.586 260.266 466.844 260.08 464.613C259.859 461.975 260.831 461.029 262.93 461.833C264.681 462.506 266.654 461.641 267.318 459.914C267.98 458.187 269.834 457.278 271.436 457.891C273.036 458.506 275.1 457.791 276.018 456.305C277.029 454.671 276.771 454.169 275.368 455.036C274.091 455.826 272.476 454.983 271.777 453.166C271.08 451.348 271.639 449.862 273.02 449.862C274.401 449.862 274.952 449.281 274.241 448.573C273.341 447.673 274.395 445.82 276.146 444.063ZM250.633 436.69C250.584 436.663 250.533 436.636 250.482 436.608C248.542 435.571 247.473 434.846 246.378 434.807C245.307 434.769 244.213 435.388 242.256 437.018C245.063 436.966 247.856 436.856 250.633 436.69ZM231.096 447.308C233.556 447.393 236.028 447.436 238.509 447.436C241.365 447.436 244.208 447.379 247.036 447.266C245.144 449.721 243.818 452.084 243.818 453.161C243.818 460.708 236.702 469.909 231.998 468.447C227.274 466.979 227.267 467.014 231.438 471.68C235.644 476.387 235.64 476.396 228.74 476.396C224.147 476.396 222.169 475.47 222.844 473.632C224.112 470.174 221.872 466.797 216.159 463.56C211.84 461.113 211.851 461.051 216.635 460.984C219.439 460.947 222.629 458.789 224.092 455.943C225.056 454.067 227.829 450.695 231.096 447.308ZM209.912 445.5C210.779 445.618 211.647 445.731 212.517 445.839C213.556 451.026 211.996 456.793 208.386 458.722C204.855 460.611 204.397 461.968 206.174 465.287C209.856 472.164 208.951 476.122 203.99 474.826C195.628 472.642 200.023 452.073 208.849 452.073C210.22 452.073 210.615 449.573 209.912 445.5ZM203.03 444.443C202.218 446.531 201.09 447.703 200.456 447.067C199.836 446.448 199.804 445.356 200.232 443.945C201.163 444.117 202.095 444.283 203.03 444.443ZM120.559 411.069C117.765 411.829 114.427 413.775 110.928 416.807C108.074 419.282 105.27 420.281 104.533 419.089C103.746 417.813 100.356 418.351 96.0457 420.438C88.7926 423.947 89.3613 429.962 96.9462 429.962C98.6234 429.962 99.9952 430.724 99.9952 431.655C99.9952 434.508 122.044 447.958 124.368 446.523C125.567 445.785 126.547 446.211 126.547 447.476C126.547 450.532 143.812 459.237 146.536 457.555C147.711 456.83 148.674 457.148 148.674 458.265C148.674 462.114 177.582 470.185 181.056 467.304C183.54 465.243 183.917 465.396 182.897 468.049C181.967 470.468 183.014 471.293 186.718 471.061C189.524 470.884 192.429 471.598 193.172 472.646C193.916 473.696 194.413 471.479 194.278 467.717C194.104 462.848 193.148 461.219 190.955 462.055C188.541 462.977 188.433 462.559 190.448 460.133C192.223 457.995 192.365 455.304 190.902 451.463C189.738 448.4 189.466 445.21 190.302 444.374C190.417 444.26 190.531 443.401 190.642 441.939C181.346 439.765 172.289 436.972 163.516 433.604C163.441 433.749 163.35 433.907 163.244 434.079C161.363 437.124 157.447 435.295 157.699 431.489C157.704 431.416 157.709 431.345 157.715 431.277C144.597 425.785 132.158 418.995 120.559 411.069ZM159.089 431.847C159.712 433.116 161.032 433.638 162.208 433.097C161.164 432.689 160.124 432.272 159.089 431.847ZM104.657 118.186C100.057 118.186 97.8468 110.014 101.471 106.394C103.701 104.163 111.059 104.627 111.059 107C111.059 108.145 110.107 109.669 108.943 110.387C107.779 111.106 107.388 113.156 108.074 114.94C108.926 117.16 107.848 118.186 104.657 118.186ZM34.4234 125.925C32.6643 124.607 32.0094 121.704 32.8015 118.739C34.5207 112.309 39.0035 112.311 39.6408 118.741C39.9129 121.476 40.4108 125.397 40.7471 127.453C41.3312 131.013 38.4061 133.266 37.7069 129.795C37.5233 128.882 36.0452 127.141 34.4234 125.925ZM438.531 139.192C437.314 139.944 436.318 139.504 436.318 138.217C436.318 136.93 437.314 135.876 438.531 135.876C439.748 135.876 440.743 136.313 440.743 136.851C440.743 137.388 439.748 138.441 438.531 139.192ZM137.48 155.776C136.192 155.776 135.752 154.781 136.504 153.565C137.256 152.349 138.309 151.354 138.847 151.354C139.385 151.354 139.823 152.349 139.823 153.565C139.823 154.781 138.768 155.776 137.48 155.776ZM119.779 171.254C118.491 171.254 118.05 170.259 118.803 169.043C119.555 167.827 120.608 166.832 121.146 166.832C121.684 166.832 122.122 167.827 122.122 169.043C122.122 170.259 121.066 171.254 119.779 171.254ZM268.949 180.442C286.201 181.315 288.106 180.63 280.041 176.446C272.611 172.596 263.484 172.647 258.113 176.572C254.288 179.367 255.365 179.752 268.949 180.442ZM113.141 180.099C111.853 180.099 111.413 179.104 112.165 177.888C112.917 176.672 113.97 175.677 114.508 175.677C115.046 175.677 115.484 176.672 115.484 177.888C115.484 179.104 114.428 180.099 113.141 180.099ZM157.557 191.447C157.666 187.002 165.757 181.364 177.31 177.689C199.607 170.593 223.601 187.462 210.455 200.995C209.333 202.151 208.415 204.813 208.415 206.914C208.415 212.822 197.772 219.9 188.886 219.9C181.492 219.9 181.277 219.703 185.313 216.654C187.674 214.867 188.612 213.225 187.395 212.999C186.178 212.776 184.187 212.431 182.97 212.23C171.8 210.401 166.375 208.028 166.375 204.972C166.375 200.537 172.738 193.366 176.675 193.366C178.312 193.366 179.651 191.874 179.651 190.049C179.651 186.036 176.717 186.001 165.822 189.886C161.259 191.513 157.54 192.216 157.557 191.447ZM272.83 203.792C286.989 204.046 287.655 202.312 275.018 198.089C263.652 194.293 259.306 195.108 259.306 201.039C259.306 202.613 264.349 203.641 272.83 203.792ZM185.231 202.812C187.605 204.141 190.676 204.073 193.708 202.622C197.825 200.652 197.332 200.375 189.982 200.539C183.461 200.685 182.366 201.209 185.231 202.812ZM245.346 204.389C246.796 204.406 248.597 203.427 249.349 202.211C251.046 199.464 250.281 199.464 246.03 202.211C244.037 203.498 243.762 204.367 245.346 204.389ZM337.262 208.844C337.262 213.101 337.718 214.843 338.273 212.714C338.831 210.584 338.831 207.104 338.273 204.975C337.718 202.845 337.262 204.588 337.262 208.844ZM330.111 228.745C331.29 230.569 332.202 231.067 332.133 229.85C331.903 225.662 328.217 218.609 328.089 222.111C328.02 223.936 328.932 226.921 330.111 228.745ZM272.712 235.378C274 235.378 274.441 234.383 273.688 233.167C272.936 231.951 271.883 230.956 271.345 230.956C270.807 230.956 270.369 231.951 270.369 233.167C270.369 234.383 271.425 235.378 272.712 235.378ZM147.753 254.173C146.926 250.525 145.735 245.55 145.105 243.117C144.191 239.593 144.414 239.358 146.206 241.968C147.443 243.765 149.092 248.995 149.868 253.587C150.645 258.18 153.048 263.175 155.21 264.69C157.374 266.202 159.761 270.923 160.52 275.179C161.226 279.151 161.57 281.084 161.404 281.129C161.247 281.172 160.63 279.514 159.429 276.285C158.071 272.637 155.227 267.661 153.108 265.229C150.988 262.797 148.578 257.822 147.753 254.173ZM237.204 255.927C239.625 256.559 241.605 256.281 241.605 255.308C241.605 252.709 235.303 250.737 233.956 252.913C233.323 253.937 234.783 255.294 237.204 255.927ZM246.583 283.677C253.821 283.874 259.306 283.071 259.306 281.813C259.306 280.597 258.558 279.759 257.647 279.949C256.735 280.141 251.009 280.979 244.924 281.813C239.574 282.547 236.811 282.925 236.823 283.16C236.836 283.411 240.013 283.498 246.583 283.677ZM71.2662 338.176C70.0293 338.939 69.0181 338.012 69.0181 336.117C69.0181 332.232 70.3457 331.662 72.242 334.729C72.9434 335.861 72.5031 337.411 71.2662 338.176ZM190.714 350.359C189.74 347.319 188.942 342.841 188.942 340.409C188.942 336.907 189.311 337.136 190.714 341.515C191.687 344.555 192.486 349.033 192.486 351.465C192.486 354.967 192.117 354.737 190.714 350.359ZM157.56 413.356C158.796 412.591 159.237 411.041 158.535 409.908C156.639 406.842 155.312 407.412 155.312 411.297C155.312 413.192 156.323 414.118 157.56 413.356ZM186.72 415.589C186.764 419.237 187.26 420.462 187.822 418.311C188.384 416.159 188.346 413.174 187.74 411.677C187.134 410.18 186.676 411.94 186.72 415.589ZM238.793 422.452C238.058 423.186 236.148 423.266 234.553 422.627C232.787 421.922 233.312 421.398 235.89 421.292C238.222 421.196 239.527 421.718 238.793 422.452ZM128.795 428.834C130.032 428.069 130.472 426.519 129.771 425.387C127.875 422.32 126.547 422.89 126.547 426.775C126.547 428.67 127.558 429.597 128.795 428.834ZM336.047 445.855C335.342 447.618 334.817 447.094 334.711 444.518C334.616 442.187 335.138 440.882 335.873 441.617C336.607 442.351 336.687 444.259 336.047 445.855ZM199.565 452.126C199.565 456.381 194.062 453.097 193.606 448.573C193.247 444.998 193.36 444.944 194.327 448.23C194.958 450.373 196.394 451.558 197.52 450.864C198.644 450.169 199.565 450.738 199.565 452.126ZM321.024 450.822C322.415 451.68 323.473 450.844 323.473 448.887C323.473 446.992 325.214 445.519 327.345 445.614C329.657 445.718 330.104 446.238 328.451 446.904C323.747 448.801 325.228 453.99 330.111 452.714C333.189 451.91 334.536 452.646 334.536 455.131C334.536 457.099 333.622 458.707 332.505 458.707C331.388 458.707 328.735 459.372 326.61 460.188C323.741 461.289 323.168 460.863 324.38 458.53C325.278 456.803 324.447 457.323 322.53 459.682C320.559 462.112 319.048 462.775 319.048 461.21C319.048 459.691 318.036 459.072 316.8 459.834C315.563 460.6 315.122 462.15 315.824 463.282C316.523 464.414 314.746 465.34 311.876 465.34C309.007 465.34 305.462 466.534 304.002 467.994C301.937 470.057 301.346 469.871 301.346 467.158C301.346 462.893 306.668 458.13 308.92 460.381C309.821 461.278 309.971 459.032 309.257 455.386C308.542 451.739 308.557 450.041 309.292 451.613C310.328 453.829 311.334 453.882 313.781 451.852C316.306 449.758 316.68 449.904 315.651 452.582C314.906 454.523 315.872 456.502 317.959 457.303C320.807 458.395 321.243 457.71 320.061 453.993C319.061 450.844 319.375 449.805 321.024 450.822ZM268.312 475.195C267.287 475.828 265.929 474.369 265.296 471.95C264.663 469.53 264.942 467.551 265.915 467.551C268.515 467.551 270.489 473.849 268.312 475.195ZM259.176 476.396C257.888 476.396 257.447 475.401 258.2 474.185C258.952 472.969 260.005 471.974 260.543 471.974C261.081 471.974 261.519 472.969 261.519 474.185C261.519 475.401 260.463 476.396 259.176 476.396Z" fill="#896C55"/>
<path fill-rule="evenodd" clip-rule="evenodd" d="M268.157 8.88788C268.157 7.14768 270.398 5.36548 273.135 4.92988C280.005 3.83314 280.747 4.90113 275.739 8.68666C270.296 12.8017 268.157 12.8569 268.157 8.88788ZM175.765 12.7972C174.236 12.1781 173.491 10.8558 174.108 9.85637C174.725 8.85913 177.274 8.5761 179.772 9.23061C186.207 10.9111 185.036 22.3561 178.544 21.2373C172.378 20.1737 171.501 18.8138 175.29 16.1825C177.765 14.4645 177.878 13.6552 175.765 12.7972ZM167.612 16.4722C167.074 16.4722 166.021 15.4772 165.268 14.261C164.516 13.0449 164.956 12.0499 166.244 12.0499C167.532 12.0499 168.587 13.0449 168.587 14.261C168.587 15.4772 168.149 16.4722 167.612 16.4722ZM193.407 23.5104C190.026 26.889 187.532 24.397 189.406 19.5148C190.513 16.6314 191.473 16.3462 193.442 18.3141C195.409 20.2798 195.403 21.5159 193.407 23.5104ZM115.493 48.5408C112.884 46.9289 118.201 36.6447 122.122 35.7205C127.536 34.4468 128.494 36.0521 125.786 41.8631C123.135 47.548 118.626 50.4734 115.493 48.5408ZM178.544 54.0621C176.719 54.0621 175.225 53.0671 175.225 51.851C175.225 50.6348 176.719 49.6398 178.544 49.6398C180.37 49.6398 181.863 50.6348 181.863 51.851C181.863 53.0671 180.37 54.0621 178.544 54.0621ZM187.395 66.6437C187.395 62.2523 193.212 58.6194 208.415 53.5138C220.673 49.3988 228.9 48.8836 232.051 52.0323C233.768 53.7482 235.653 53.6708 238.715 51.7603C242.149 49.6177 244.344 49.799 249.929 52.6846C257.93 56.8195 260.131 57.1865 258.2 54.0621C257.447 52.846 257.888 51.851 259.176 51.851C260.463 51.851 261.519 52.7465 261.519 53.8388C261.519 56.6426 279.076 65.4674 281.579 63.9218C282.716 63.2208 283.645 64.1982 283.645 66.0931C283.645 70.7012 275.16 70.5575 269.967 65.861C267.73 63.8355 262.674 61.8565 258.731 61.4585C228.875 58.4557 228.378 58.3562 224.275 54.5375C221.788 52.2247 220.582 52.2247 217.772 54.5375C214.723 57.0494 214.878 57.4607 219.113 58.0865C224.975 58.951 225.446 61.8499 219.793 62.2744C213.053 62.783 199.565 69.1269 199.565 71.7869C199.565 73.2175 201.352 73.6929 203.804 72.9168C212.301 70.2214 210.254 75.7958 199.381 84.9589C193.256 90.1197 187.674 93.7726 186.977 93.0761C186.278 92.3796 183.625 93.2662 181.08 95.0462C175.692 98.8185 168.587 99.3293 168.587 95.944C168.587 94.6571 167.441 94.3099 166.041 95.1767C164.244 96.2845 164.571 97.5382 167.147 99.4199C171.13 102.332 172.148 109.341 168.587 109.341C164.662 109.341 166.24 113.757 170.247 113.985C172.721 114.124 172.121 114.777 168.587 115.789C165.176 116.767 163.293 118.743 163.671 120.943C164.149 123.714 162.589 124.424 156.703 124.114C152.532 123.893 149.446 123.179 149.844 122.524C150.242 121.87 147.651 120.046 144.089 118.469C137.597 115.599 134.685 109.958 140.929 112.353C142.755 113.052 144.248 112.539 144.248 111.212C144.248 109.494 145.105 109.51 147.218 111.263C152.718 115.825 152.685 111.334 147.171 105.39C144.169 102.151 142.779 99.1435 144.085 98.7079C145.392 98.2723 146.461 95.5128 146.461 92.5741C146.461 89.2972 147.744 87.2297 149.78 87.2297C151.605 87.2297 153.099 85.7372 153.099 83.913C153.099 80.1761 156.559 79.4597 158.608 82.772C159.35 83.9683 162.79 82.049 166.255 78.5067C170.181 74.4956 175.354 71.798 179.976 71.3557C185.399 70.8361 187.395 69.5691 187.395 66.6437ZM117.827 60.6957C116.539 60.6957 115.484 59.7006 115.484 58.4845C115.484 57.2683 115.922 56.2733 116.46 56.2733C116.997 56.2733 118.05 57.2683 118.803 58.4845C119.555 59.7006 119.115 60.6957 117.827 60.6957ZM202.883 60.6957C201.142 63.5105 206.269 63.5105 210.628 60.6957C213.325 58.9533 213.04 58.5464 209.099 58.5177C206.433 58.5 203.636 59.4795 202.883 60.6957ZM170.632 87.2297C171.681 87.2297 173.112 85.7372 173.814 83.913C174.513 82.0888 174.227 80.5962 173.181 80.5962C172.132 80.5962 170.7 82.0888 169.999 83.913C169.3 85.7372 169.585 87.2297 170.632 87.2297ZM188.501 86.1241C190.935 83.924 192.927 81.7792 192.927 81.3591C192.927 79.7162 190.875 80.751 187.552 84.07C182.496 89.1247 183.286 90.8406 188.501 86.1241ZM303.094 100.784C301.968 104.158 292.496 98.3519 292.496 94.2878C292.496 90.6305 300.975 92.8262 305.772 97.7284C307.597 99.5946 307.931 100.477 306.513 99.6897C305.097 98.9025 303.557 99.3956 303.094 100.784ZM181.753 107.287C184.603 103.285 190.026 98.6659 193.803 97.023C205.025 92.143 204.997 93.3856 193.679 102.275C178.086 114.524 175.958 115.418 181.753 107.287ZM198.458 107.146C202.109 105.461 211.07 102.922 218.372 101.503C246.838 95.9661 280.764 100.853 291.243 111.997C301.953 123.389 310.197 143.356 310.197 157.905C310.197 167.54 315.802 205.959 318.045 211.701C320.24 217.32 323.597 215.418 329.21 205.382C339.645 186.726 344.19 194.604 341.464 226.631C339.211 253.081 331.664 268.077 323.227 262.865C317.295 259.202 314.253 278.136 314.992 314.138C315.457 336.896 317.663 348.311 320.698 347.264C311.619 359.134 298.271 373.414 291.389 377.318C286.072 380.334 288.062 377.42 301.838 362.017C310.487 352.345 311.199 350.096 307.984 342.62C306.347 338.81 306.057 339.118 305.9 344.831C305.705 351.885 296.439 359.788 284.995 362.658C281.915 363.43 276.848 366.421 273.733 369.307C266.957 375.582 256.945 374.673 253.666 367.489C252.509 364.955 250.068 362.147 248.243 361.249C219.636 347.168 208.809 341.865 209.425 339.221C209.802 337.597 214.495 336.976 222.034 335.94C230.694 334.748 234.102 332.809 241.373 324.929C246.225 319.666 252.246 314.711 254.75 313.917C257.257 313.121 259.306 311.171 259.306 309.581C259.306 307.991 262.857 302.835 267.196 298.123C271.535 293.408 275.642 286.815 276.324 283.471C277.574 277.324 283.645 274.808 283.645 280.438C283.645 282.111 285.139 284.721 286.964 286.235C289.701 288.504 290.283 288.305 290.283 285.092C290.283 282.947 291.947 279.98 293.981 278.494C297.875 275.648 300.001 268.546 296.961 268.546C294.231 268.546 298.563 252.006 303.679 242.907C306.183 238.447 307.672 233.331 306.984 231.54C306.296 229.749 306.865 224.506 308.25 219.889C312.056 207.195 308.635 186.761 304.55 197.788C302.973 202.045 301.608 204.475 301.515 203.186C301.422 201.899 299.802 198.914 297.912 196.552C294.58 192.387 294.52 192.406 295.863 197.28C296.941 201.189 295.512 203.836 289.4 209.242C281.415 216.309 264.902 220.955 270.124 214.668C272.137 212.243 271.296 211.06 266.008 208.871C256.454 204.917 259.306 203.058 273.91 203.719C280.952 204.037 285.705 203.458 284.577 202.419C281.415 199.509 259.182 192.751 257.689 194.246C256.956 194.978 257.487 195.577 258.868 195.577C260.249 195.577 260.808 197.063 260.111 198.881C259.412 200.698 258.085 201.718 257.158 201.145C254.591 199.56 247.603 208.234 249.274 210.934C252.484 216.123 244.054 220.8 239.277 216.477C229.086 207.263 231.34 180.747 242.362 180.192C243.388 180.141 246.758 178.109 249.851 175.677C253.792 172.579 258.538 171.329 265.69 171.509C275.735 171.758 275.775 171.787 268.081 173.293C252.894 176.267 252.923 178.927 268.157 180.101C276.067 180.711 283.535 180.608 284.752 179.869C290.343 176.477 296.921 176.185 296.921 179.332C296.921 181.114 297.917 181.956 299.134 181.205C300.351 180.453 301.346 181.059 301.346 182.549C301.346 184.039 301.924 184.681 302.632 183.973C303.34 183.268 302.716 180.444 301.245 177.7C299.034 173.572 299.189 172.26 302.139 170.105C304.099 168.672 305.243 167.042 304.683 166.48C304.121 165.921 302.641 158.261 301.393 149.463C296.768 116.893 286.984 108.026 249.73 102.646C227.344 99.4133 190.17 109.773 178.699 122.438C176.411 124.963 173.798 127.031 172.891 127.031C170.515 127.031 186.963 110.695 189.608 110.429C190.825 110.306 194.807 108.828 198.458 107.146ZM323.244 343.842C322.349 345.855 321.495 346.989 320.698 347.264C321.592 346.096 322.444 344.951 323.244 343.842ZM323.244 343.842C324.55 340.905 325.942 336.096 327.369 329.353C329.213 320.652 329.29 320.595 332.109 325.751C333.844 328.92 334.016 330.399 332.545 329.49C331.2 328.659 330.111 329.428 330.111 331.206C330.111 333.376 327.359 338.14 323.244 343.842ZM104.657 118.186C100.057 118.186 97.8468 110.014 101.471 106.394C103.701 104.163 111.059 104.627 111.059 107C111.059 108.145 110.107 109.669 108.943 110.387C107.779 111.106 107.388 113.156 108.074 114.94C108.926 117.16 107.848 118.186 104.657 118.186ZM34.4234 125.925C32.6643 124.607 32.0094 121.704 32.8015 118.739C34.5207 112.309 39.0035 112.311 39.6408 118.741C39.9129 121.476 40.4108 125.397 40.7471 127.453C41.3312 131.013 38.4061 133.266 37.7069 129.795C37.5233 128.882 36.0452 127.141 34.4234 125.925ZM148.674 143.139C148.674 141.866 151.849 137.72 155.732 133.927C165.527 124.358 166.649 125.277 157.405 135.298C153.212 139.845 149.532 143.991 149.227 144.512C148.921 145.032 148.674 144.415 148.674 143.139ZM438.531 139.192C437.314 139.944 436.318 139.504 436.318 138.217C436.318 136.93 437.314 135.876 438.531 135.876C439.748 135.876 440.743 136.313 440.743 136.851C440.743 137.388 439.748 138.441 438.531 139.192ZM149.893 165.726C148.114 159.646 146.611 152.731 146.558 150.359C146.335 140.481 150.596 151.139 151.82 163.515C152.499 170.392 152.826 173.704 152.533 173.76C152.26 173.812 151.452 171.052 149.893 165.726ZM137.48 155.776C136.192 155.776 135.752 154.781 136.504 153.565C137.256 152.349 138.309 151.354 138.847 151.354C139.385 151.354 139.823 152.349 139.823 153.565C139.823 154.781 138.768 155.776 137.48 155.776ZM119.779 171.254C118.491 171.254 118.05 170.259 118.803 169.043C119.555 167.827 120.608 166.832 121.146 166.832C121.684 166.832 122.122 167.827 122.122 169.043C122.122 170.259 121.066 171.254 119.779 171.254ZM282.8 177.888C280.975 177.888 278.866 176.893 278.114 175.677C277.361 174.461 278.24 173.465 280.065 173.465C281.891 173.465 283.999 174.461 284.752 175.677C285.504 176.893 284.625 177.888 282.8 177.888ZM113.141 180.099C111.853 180.099 111.413 179.104 112.165 177.888C112.917 176.672 113.97 175.677 114.508 175.677C115.046 175.677 115.484 176.672 115.484 177.888C115.484 179.104 114.428 180.099 113.141 180.099ZM184.076 184.236C171.705 183.672 170.791 183.06 177.991 180.168C184.122 177.707 187.125 177.499 191.639 179.23C198.861 182.001 194.748 184.723 184.076 184.236ZM270.369 188.944C272.659 188.944 275.149 187.949 275.901 186.733C276.702 185.439 274.405 184.521 270.369 184.521C266.333 184.521 264.037 185.439 264.838 186.733C265.59 187.949 268.079 188.944 270.369 188.944ZM188.924 197.755C193.035 197.726 193.385 197.302 190.714 195.577C188.18 193.941 189.032 193.426 194.316 193.399C201.817 193.364 207.395 198.124 205.534 202.976C203.614 207.973 186.32 209.731 183.047 205.26C181.135 202.646 179.859 202.297 178.752 204.088C177.885 205.488 175.493 206.598 173.435 206.556C170.696 206.498 171.143 205.673 175.104 203.482C178.994 201.328 181.879 201.11 185.373 202.699C188.762 204.243 191.475 204.128 194.345 202.321C197.976 200.033 197.739 199.84 192.32 200.674C188.946 201.194 185.649 200.756 184.999 199.703C184.348 198.651 186.114 197.773 188.924 197.755ZM148.674 206.633C146.24 204.201 144.248 201.704 144.248 201.087C144.248 200.468 146.24 201.205 148.674 202.724C151.107 204.243 153.099 206.739 153.099 208.272C153.099 209.963 151.364 209.322 148.674 206.633ZM245.346 204.389C246.796 204.406 248.597 203.427 249.349 202.211C251.046 199.464 250.281 199.464 246.03 202.211C244.037 203.498 243.762 204.367 245.346 204.389ZM336.574 208.294C337.632 215.924 337.784 216.079 338.515 210.233C338.95 206.741 338.435 203.011 337.366 201.943C336.253 200.831 335.915 203.54 336.574 208.294ZM145.759 213.682C145.054 215.445 144.529 214.921 144.423 212.345C144.328 210.014 144.85 208.709 145.585 209.443C146.319 210.178 146.399 212.086 145.759 213.682ZM334.943 223.226C337.935 229.791 339.307 229.437 337.51 222.567C336.806 219.885 335.375 217.689 334.326 217.689C333.277 217.689 333.554 220.181 334.943 223.226ZM147.985 230.403C147.43 232.533 146.974 230.79 146.974 226.534C146.974 222.277 147.43 220.535 147.985 222.664C148.543 224.793 148.543 228.274 147.985 230.403ZM330.111 228.745C331.29 230.569 332.202 231.067 332.133 229.85C331.863 224.946 328.219 218.527 328.053 222.664C327.969 224.793 327.002 226.534 325.905 226.534C324.807 226.534 324.008 229.954 324.126 234.136C324.396 243.63 327.885 242.116 327.931 232.484C327.958 227.115 328.478 226.222 330.111 228.745ZM240.499 239.011C238.673 237.187 237.18 235.126 237.18 234.43C237.18 231.542 242.937 233.461 245.216 237.11C248.933 243.056 250.694 253.791 248.511 257.183C246.072 260.968 247.924 268.546 251.29 268.546C259.322 268.546 267.477 281.269 262.072 285.369C257.485 288.849 229.539 289.645 231.648 286.235C232.467 284.911 229.639 284.02 224.587 284.011C220.195 284.004 218.092 284.001 217.982 283.531C217.881 283.1 219.462 282.276 222.496 280.694C225.984 278.877 231.46 277.375 234.666 277.357C247.519 277.282 248.409 272.519 236.073 269.828C229.546 268.404 217.412 260.685 219.512 259.292C220.102 258.901 223.78 256.345 227.687 253.614C231.593 250.881 236.819 248.645 239.304 248.645C244.605 248.645 245.216 243.725 240.499 239.011ZM325.783 258.655C329.715 261.083 334.587 255.038 334.078 248.362C333.514 240.959 332.158 240.508 327.135 246.056C322.984 250.64 322.351 256.537 325.783 258.655ZM147.972 251.272C147.266 253.035 146.742 252.51 146.636 249.934C146.541 247.604 147.063 246.299 147.797 247.033C148.532 247.768 148.612 249.676 147.972 251.272ZM237.204 255.927C239.625 256.559 241.605 256.281 241.605 255.308C241.605 252.709 235.303 250.737 233.956 252.913C233.323 253.937 234.783 255.294 237.204 255.927ZM159.268 273.271C158.715 274.927 157.712 273.924 156.929 270.934C155.966 267.257 156.254 266.392 157.896 268.033C159.184 269.32 159.799 271.675 159.268 273.271ZM197.947 281.052C196.449 281.658 193.462 281.696 191.309 281.134C189.156 280.572 190.382 280.077 194.033 280.033C197.684 279.989 199.445 280.446 197.947 281.052ZM246.583 283.677C253.821 283.874 259.306 283.071 259.306 281.813C259.306 280.597 258.558 279.759 257.647 279.949C256.735 280.141 251.009 280.979 244.924 281.813C239.574 282.547 236.811 282.925 236.823 283.16C236.836 283.411 240.013 283.498 246.583 283.677ZM227.729 305.26C226.995 305.994 225.085 306.074 223.49 305.435C221.724 304.73 222.249 304.205 224.826 304.099C227.158 304.004 228.464 304.526 227.729 305.26ZM181.31 317.475C179.179 315.805 177.438 314.063 177.438 313.605C177.438 311.785 179.255 312.955 182.147 316.639C184.897 320.146 184.819 320.223 181.31 317.475ZM71.2662 338.176C70.0293 338.939 69.0181 338.012 69.0181 336.117C69.0181 332.232 70.3457 331.662 72.242 334.729C72.9434 335.861 72.5031 337.411 71.2662 338.176ZM342.44 349.362C338.092 342.149 334.554 335.193 334.576 333.906C334.598 332.617 337.39 336.539 340.782 342.62C344.172 348.701 348.263 355.732 349.872 358.249C352.589 362.496 350.691 364.929 323.117 392.522C305.233 410.418 293.793 422.997 288.406 430.744C286.788 431.162 285.163 431.56 283.53 431.938C288.846 425.328 293.966 418.098 295.149 415.505C296.392 412.779 299.795 409.462 302.709 408.135C305.626 406.806 307.887 404.955 307.737 404.022C307.106 400.144 308.106 396.794 309.892 396.794C310.94 396.794 317.107 392.069 323.595 386.291L329.337 381.178C334.532 376.554 339.893 371.781 342.867 369.132C346.043 366.304 347.87 364.677 348.314 362.735C348.914 360.108 346.983 356.903 342.44 349.362ZM240.916 447.423C242.955 447.4 244.986 447.348 247.011 447.267C245.165 450.127 243.818 452.808 243.818 453.734C243.818 460.759 236.529 469.858 231.998 468.493C225.705 466.596 222.036 463.147 226.227 463.067C227.99 463.034 231.925 459.478 234.967 455.167C236.713 452.692 238.912 449.844 240.916 447.423ZM201.102 444.104C201.823 444.234 202.545 444.361 203.269 444.483C202.969 444.996 202.557 445.529 202.052 446.03C199.865 448.197 199.613 447.943 200.812 444.792C200.905 444.551 201.002 444.321 201.102 444.104ZM189.847 431.059C189.581 427.795 189.567 423.775 189.869 419.918C192.053 391.98 188.324 377.818 180.841 385.636C177.237 389.404 173.03 392.002 171.493 391.414C166.554 389.519 152.57 396.648 153.986 400.336C154.849 402.585 154.376 403.107 152.521 401.953C147.725 398.968 136.981 401.709 131.365 405.766C149.129 417.143 168.823 425.774 189.847 431.059ZM277.408 443.83C276.627 444.795 275.656 445.44 274.839 445.44C274.497 445.44 274.504 445.032 274.806 444.301C275.675 444.149 276.542 443.992 277.408 443.83ZM120.559 411.069C117.765 411.829 114.427 413.775 110.928 416.807C108.074 419.282 105.27 420.281 104.533 419.089C103.746 417.813 100.356 418.351 96.0457 420.438C88.7926 423.947 89.3613 429.962 96.9462 429.962C98.6234 429.962 99.9952 430.724 99.9952 431.655C99.9952 434.508 122.044 447.958 124.368 446.523C125.567 445.785 126.547 446.211 126.547 447.476C126.547 450.532 143.812 459.237 146.536 457.555C147.711 456.83 148.674 457.148 148.674 458.265C148.674 462.114 177.582 470.185 181.056 467.304C183.54 465.243 183.917 465.396 182.897 468.049C181.967 470.468 183.014 471.293 186.718 471.061C189.524 470.884 192.429 471.598 193.172 472.646C193.916 473.696 194.413 471.479 194.278 467.717C194.104 462.848 193.148 461.219 190.955 462.055C188.541 462.977 188.433 462.559 190.448 460.133C192.212 458.008 192.362 455.299 190.924 451.518C189.554 447.918 189.608 445.219 191.081 443.746C191.528 443.299 191.845 442.805 192.031 442.259C182.248 440.042 172.725 437.139 163.516 433.604C163.441 433.749 163.35 433.907 163.244 434.079C161.363 437.124 157.447 435.295 157.699 431.489C157.704 431.416 157.709 431.345 157.715 431.277C144.597 425.785 132.158 418.995 120.559 411.069ZM159.089 431.847C159.712 433.116 161.032 433.638 162.208 433.097C161.164 432.689 160.124 432.272 159.089 431.847ZM190.035 371.876C189.473 374.028 188.977 372.803 188.933 369.154C188.888 365.506 189.346 363.746 189.953 365.243C190.559 366.74 190.597 369.725 190.035 371.876ZM205.187 390.16C204.578 390.16 202.047 386.18 199.565 381.316C197.082 376.451 195.546 372.471 196.155 372.471C196.763 372.471 199.295 376.451 201.777 381.316C204.26 386.18 205.795 390.16 205.187 390.16ZM157.56 413.356C158.796 412.591 159.237 411.041 158.535 409.908C156.639 406.842 155.312 407.412 155.312 411.297C155.312 413.192 156.323 414.118 157.56 413.356ZM186.72 415.589C186.764 419.237 187.26 420.462 187.822 418.311C188.384 416.159 188.346 413.174 187.74 411.677C187.134 410.18 186.676 411.94 186.72 415.589ZM128.795 428.834C130.032 428.069 130.472 426.519 129.771 425.387C127.875 422.32 126.547 422.89 126.547 426.775C126.547 428.67 127.558 429.597 128.795 428.834ZM336.047 445.855C335.342 447.618 334.817 447.094 334.711 444.518C334.616 442.187 335.138 440.882 335.873 441.617C336.607 442.351 336.687 444.259 336.047 445.855ZM208.572 452.073C209.703 452.073 210.707 450.333 210.803 448.204C210.924 445.499 211.338 445.243 212.179 447.352C212.851 449.046 210.588 452.6 207.026 455.441C201.155 460.122 200.868 461.031 203.244 467.346C205.364 472.978 205.267 474.185 202.691 474.185C198.33 474.185 198.595 459.991 203.041 455.547C204.955 453.637 207.444 452.073 208.572 452.073ZM321.024 450.822C322.415 451.68 323.473 450.844 323.473 448.887C323.473 446.992 325.214 445.519 327.345 445.614C329.657 445.718 330.104 446.238 328.451 446.904C323.747 448.801 325.228 453.99 330.111 452.714C333.189 451.91 334.536 452.646 334.536 455.131C334.536 457.099 333.622 458.707 332.505 458.707C331.388 458.707 328.735 459.372 326.61 460.188C323.741 461.289 323.168 460.863 324.38 458.53C325.278 456.803 324.447 457.323 322.53 459.682C320.559 462.112 319.048 462.775 319.048 461.21C319.048 459.691 318.036 459.072 316.8 459.834C315.563 460.6 315.122 462.15 315.824 463.282C316.523 464.414 314.746 465.34 311.876 465.34C309.007 465.34 305.462 466.534 304.002 467.994C301.937 470.057 301.346 469.871 301.346 467.158C301.346 462.893 306.668 458.13 308.92 460.381C309.821 461.278 309.971 459.032 309.257 455.386C308.542 451.739 308.557 450.041 309.292 451.613C310.328 453.829 311.334 453.882 313.781 451.852C316.306 449.758 316.68 449.904 315.651 452.582C314.906 454.523 315.872 456.502 317.959 457.303C320.807 458.395 321.243 457.71 320.061 453.993C319.061 450.844 319.375 449.805 321.024 450.822ZM252.498 463.943C257.405 457.095 260.87 450.377 260.2 449.017C259.527 447.658 260.415 448.297 262.169 450.439C264.997 453.889 265.678 453.951 268.137 450.992C269.663 449.155 272.033 447.731 273.405 447.826C275.098 447.943 275.051 448.345 273.259 449.075C271.808 449.665 271.164 451.571 271.832 453.309C272.5 455.047 274.091 455.826 275.368 455.036C276.771 454.169 277.029 454.671 276.018 456.305C275.1 457.791 273.036 458.506 271.436 457.891C269.834 457.278 267.98 458.187 267.318 459.914C266.654 461.641 264.681 462.506 262.93 461.833C260.831 461.029 259.859 461.975 260.08 464.613C260.266 466.844 258.213 469.586 255.434 470.815C252.697 472.029 250.455 473.783 250.455 474.709C250.455 475.638 248.907 476.396 247.015 476.396C244.552 476.396 246.108 472.86 252.498 463.943ZM268.312 475.195C267.287 475.828 265.929 474.369 265.296 471.95C264.663 469.53 264.942 467.551 265.915 467.551C268.515 467.551 270.489 473.849 268.312 475.195ZM234.062 475.828C232.526 477.36 228.329 474.245 228.329 471.574C228.329 470.105 229.599 470.273 231.701 472.018C233.555 473.557 234.617 475.271 234.062 475.828ZM259.176 476.396C257.888 476.396 257.447 475.401 258.2 474.185C258.952 472.969 260.005 471.974 260.543 471.974C261.081 471.974 261.519 472.969 261.519 474.185C261.519 475.401 260.463 476.396 259.176 476.396Z" fill="#3E3A2E"/>
</svg>
